<?xml version="1.0" standalone="no"?>
<!DOCTYPE svg PUBLIC "-//W3C//DTD SVG 1.1//EN" "http://www.w3.org/Graphics/SVG/1.1/DTD/svg11.dtd" >
<svg xmlns="http://www.w3.org/2000/svg" xmlns:xlink="http://www.w3.org/1999/xlink" version="1.1">
<metadata></metadata>
<defs>
<font id="herculanum_lt_stdroman" horiz-adv-x="681" >
<font-face units-per-em="2048" ascent="1589" descent="-459" />
<missing-glyph horiz-adv-x="569" />
<glyph horiz-adv-x="0" />
<glyph horiz-adv-x="682" />
<glyph unicode=" "  horiz-adv-x="569" />
<glyph unicode="&#x09;" horiz-adv-x="569" />
<glyph unicode="&#xa0;" horiz-adv-x="569" />
<glyph unicode="!" horiz-adv-x="645" d="M203 1124q0 9 12 23t25 22l57 37q22 11 31 11q13 0 50.5 -29.5t37.5 -46.5q0 -23 -6.5 -70.5t-15 -105.5t-15 -186.5t-6.5 -293.5q0 -9 1 -35t1 -42q0 -25 -25 -25q-19 0 -57.5 32.5t-38.5 47.5q0 59 -4 176t-4 176q0 25 1 74t1 74q0 49 -22.5 102t-22.5 59zM217 80 q0 37 46.5 85t64.5 48q28 0 71 -35t43 -63q0 -34 -35.5 -74.5t-78.5 -40.5q-32 0 -71.5 32t-39.5 48z" />
<glyph unicode="&#x22;" horiz-adv-x="561" d="M82 1217h139l-26 -418h-86zM336 1217h139l-26 -418h-87z" />
<glyph unicode="#" horiz-adv-x="1144" d="M88 342v84h221l56 289h-226v86h240l65 336h95l-66 -336h285l65 336h95l-66 -336h203v-86h-219l-56 -289h221v-84h-237l-66 -342h-94l66 342h-283l-65 -342h-95l66 342h-205zM403 426h283l57 289h-284z" />
<glyph unicode="$" horiz-adv-x="1062" d="M160 180q0 15 9.5 27t23.5 12q17 0 83 -37q48 -27 102.5 -47t80.5 -20q12 0 28 4l5 434l-224 106q-40 20 -72 69.5t-32 115.5q0 95 11 131t46 74q54 59 118.5 87t154.5 44v137q0 18 21.5 32.5t51.5 14.5q8 0 14.5 -5.5t6.5 -15.5q0 -4 -5 -55.5t-5 -99.5h40 q57 0 151.5 -26.5t94.5 -57.5q0 -36 -29 -79.5t-53 -43.5q-14 0 -28.5 14.5t-48.5 61.5q-26 37 -123 37q-7 -14 -7 -60l-4 -381q59 -34 191 -84q67 -26 104 -98t37 -145q0 -44 -40 -124t-72 -102q-86 -56 -232 -82q0 -64 -14 -127q-3 -15 -19.5 -30t-36.5 -15q-8 0 -8 11 q0 2 1 19t2 52t1 82q-78 0 -159.5 16.5t-124.5 36.5q-16 7 -28.5 47t-12.5 70zM291 887q0 -77 205 -195l-4 395q-63 0 -132 -68t-69 -132zM557 123q71 22 113 42t63.5 46t28 51.5t6.5 67.5q0 60 -51.5 101.5t-155.5 84.5z" />
<glyph unicode="%" horiz-adv-x="1705" d="M121 965q0 161 225 270q21 10 41.5 34t41.5 40t52 16t53 -13.5t39.5 -32.5t41.5 -38.5t73.5 -33t120.5 -13.5q207 0 257 3t71 17q61 43 75 43q27 0 82 -26q19 -8 19 -29q0 -11 -10.5 -20.5t-27.5 -21.5t-49.5 -50.5t-66.5 -97.5q-50 -84 -192.5 -304.5t-186.5 -275.5 q-75 -95 -118 -172t-99 -215q-20 -49 -35.5 -62.5t-48.5 -13.5q-32 0 -68 7.5t-36 19.5q0 23 14.5 49t67.5 90q106 131 187 248t228 356q89 145 201 303q29 44 29 54q0 16 -21 16q-1 0 -87.5 -12.5t-184.5 -12.5q-65 0 -95 5t-71 22l-4 -4q8 -8 8 -39q0 -79 -20 -184 q-9 -45 -34 -82.5t-56 -52.5q-162 -84 -238 -84q-17 0 -61 28.5t-58 46.5q-39 49 -49 89.5t-10 132.5zM248 913q0 -56 14 -88q7 -17 20 -21.5t56 -4.5q99 0 143 53q41 49 62.5 120.5t21.5 112.5q0 51 -43.5 86t-72.5 35q-13 0 -66.5 -40.5t-81.5 -73.5q-22 -25 -37.5 -81 t-15.5 -98zM1008 289q0 117 71 180q99 89 138.5 114t68.5 25q55 0 111 -9.5t78 -25.5q48 -35 79 -104.5t31 -126.5q0 -34 -31.5 -103.5t-78.5 -127.5q-26 -31 -104 -71t-103 -40q-28 0 -84 27t-121 77q-26 20 -40.5 70t-14.5 115zM1143 285q0 -97 20 -123q34 -43 101 -43 q62 0 107 21t67 54t31.5 62.5t9.5 56.5q0 56 -70 123q-66 66 -152 66q-68 0 -91 -45.5t-23 -171.5z" />
<glyph unicode="&#x26;" horiz-adv-x="1703" d="M172 373q0 88 81.5 193t152.5 141l-107 100q-59 56 -59 186q0 53 35 105t85.5 87t104.5 57t94 22q50 0 114 -24.5t115.5 -75t51.5 -109.5q0 -80 -58.5 -158.5t-181.5 -175.5q40 -37 166.5 -127.5t185.5 -124.5q12 24 24.5 89.5t12.5 96.5q0 32 -16 72q-3 7 -26 20.5 t-23 28.5q0 39 129 39q45 0 58 -7t13 -34q0 -109 -16.5 -186.5t-56.5 -184.5q163 -107 297 -184.5t157 -77.5q15 0 40.5 12.5t37.5 12.5q29 0 29 -23q0 -29 -54.5 -93t-78.5 -64q-3 0 -6.5 1t-8.5 3t-10 4.5t-13.5 7.5t-15.5 9t-19 11.5t-22 14t-26.5 16.5t-30.5 19 l-334 209q-28 -56 -76.5 -108.5t-99.5 -88.5t-79 -53.5t-46 -26.5q-39 -20 -125 -20q-94 0 -131 12q-17 6 -46 23.5t-67.5 51.5t-71.5 76t-56 102t-23 124zM319 350q0 -62 47 -124t109 -99t111 -37q161 0 313 246l-131 90q-112 77 -291 221q-77 -68 -117.5 -147t-40.5 -150z M375 983q0 -37 30 -79t111 -120l86 70q51 40 77 89t26 89q0 37 -47 81t-95 44q-66 0 -127 -51t-61 -123z" />
<glyph unicode="'" horiz-adv-x="305" d="M82 1217h139l-26 -418h-86z" />
<glyph unicode="(" d="M135 592q0 96 35 178q84 191 330 496q16 20 18 32q3 21 35 21q9 0 21 -1t27.5 -4t25.5 -10t10 -16q0 -11 -11.5 -21.5t-32 -28.5t-34.5 -40q-88 -133 -139.5 -222.5t-77 -158.5t-32.5 -115t-7 -112q0 -87 10 -156.5t37 -151.5t82 -169t139 -183q12 -13 30 -21t29 -13.5 t11 -16.5t-17 -31t-28 -20q-21 0 -51.5 8.5t-42.5 22.5q-185 208 -314 428q-31 53 -42 110t-11 195z" />
<glyph unicode=")" d="M41 -121q0 11 11 16.5t29 13.5t30 21q84 96 139 183t82 169t37 151.5t10 156.5q0 66 -7 112t-32.5 115t-77 158.5t-139.5 222.5q-14 22 -34.5 40t-32 28.5t-11.5 21.5q0 17 29 24t55 7q32 0 35 -21q2 -12 18 -32q246 -305 330 -496q35 -82 35 -178q0 -138 -11 -195 t-42 -110q-129 -220 -314 -428q-12 -14 -42.5 -22.5t-51.5 -8.5q-11 0 -28 20t-17 31z" />
<glyph unicode="*" horiz-adv-x="833" d="M109 999q0 12 10 40t18 28q18 0 135 -49q78 -33 117 -41l4 242q0 17 29.5 31t46.5 14q31 0 31 -156q0 -33 -3 -61t-6.5 -44.5t-3.5 -19.5q0 -6 7 -6t22 18q8 9 105 68t106 59t26 -9.5t17 -16.5q0 -9 -22.5 -45t-36.5 -54q-21 -28 -43 -39q-60 -29 -174 -69 q32 -48 92.5 -125t75.5 -90q26 -23 26 -41q0 -11 -30 -28t-42 -17q-17 0 -47 33q-56 61 -168 213q-59 -58 -119.5 -127.5t-76.5 -92.5q-13 -18 -37 -18q-17 0 -27 18q-5 10 -14.5 42t-9.5 38q0 12 18 27l195 153q-62 23 -141.5 66t-79.5 59z" />
<glyph unicode="+" horiz-adv-x="1161" d="M102 422v84h433v401h90v-401h432v-84h-432v-445h-90v445h-433z" />
<glyph unicode="," horiz-adv-x="569" d="M102 -168q0 6 54.5 177.5t54.5 187.5q0 12 -3 33.5t-3 31.5q0 13 48.5 40.5t68.5 27.5q16 0 48.5 -20t32.5 -38q0 -16 -49.5 -131t-110.5 -226.5t-85 -111.5q-56 0 -56 29z" />
<glyph unicode="-" d="M129 526q0 22 30.5 70.5t61.5 48.5q7 0 25.5 -7.5t56 -14.5t90.5 -7q47 0 112 7.5t75 7.5q16 0 24 -23.5t8 -40.5q0 -10 -25.5 -33.5t-41.5 -23.5q-8 0 -122 -6t-226 -6q-68 0 -68 28z" />
<glyph unicode="." horiz-adv-x="569" d="M160 92q0 22 49.5 71.5t71.5 49.5q28 0 49 -12q31 -18 50.5 -35t24.5 -26t5 -15q0 -37 -49.5 -81t-67.5 -44q-26 0 -111 49q-22 13 -22 43z" />
<glyph unicode="/" horiz-adv-x="757" d="M-8 -131q0 4 3.5 10t10.5 17t12 20q45 82 219 447.5t265 584.5q72 173 111 256.5t57.5 107t36.5 23.5t38.5 -20.5t20.5 -38.5q0 -6 -4.5 -14t-17 -28.5t-25.5 -45.5q-187 -375 -352.5 -738t-255.5 -589q-3 -7 -27 -20t-31 -13q-24 0 -45 16q-16 10 -16 25z" />
<glyph unicode="0" horiz-adv-x="1214" d="M184 504q0 157 30.5 281t76 196.5t104.5 120.5t109.5 65t97.5 17q128 0 226.5 -80t150 -214.5t51.5 -297.5q0 -45 -10.5 -102t-32.5 -125t-60.5 -131.5t-88.5 -116.5t-123.5 -85t-159.5 -32q-74 0 -144 49.5t-119 124.5t-78.5 163.5t-29.5 166.5zM332 590 q0 -16 1.5 -39.5t7.5 -69.5t16.5 -90t31.5 -92.5t48.5 -84.5t71.5 -59.5t97 -23.5q62 0 110.5 29t79 75.5t51 110.5t28.5 129.5t8 136.5q0 44 -9 99t-31.5 118.5t-54.5 115t-83.5 86t-112.5 34.5q-115 0 -187.5 -135.5t-72.5 -339.5z" />
<glyph unicode="1" d="M156 1081q0 19 18 27q70 30 119 56.5t64.5 35t29.5 8.5q17 0 40.5 -9.5t23.5 -20.5q0 -5 -7.5 -46.5t-15.5 -161t-8 -313.5q0 -237 10 -514q1 -25 9 -42.5t17.5 -24.5t17 -15.5t7.5 -17.5q0 -20 -36 -31.5t-97 -11.5q-70 0 -92.5 7.5t-22.5 25.5q0 15 31 51q8 9 12 29.5 t6.5 97t2.5 227.5q0 238 -10 365t-25.5 168.5t-46.5 56.5q-47 21 -47 53z" />
<glyph unicode="2" horiz-adv-x="1062" d="M131 1100q0 36 127.5 65t208.5 29q74 0 124 -14.5t124 -67.5q68 -48 93.5 -96t25.5 -131q0 -76 -38 -169t-120 -169l-402 -375q-12 -12 -12 -16q0 -6 14 -6q92 0 261 3.5t223 4.5q49 1 86 7.5t53 14.5l29 14.5t20 6.5q11 0 20 -11t9 -26q0 -36 -16 -100t-41 -64 q-18 0 -58 16q-22 9 -73 12t-199 3q-213 0 -271 -3.5t-90 -15.5t-45 -12q-14 0 -31.5 14.5t-17.5 30.5v111q0 23 28 55t142 131t191.5 185.5t115 154.5t52 118t14.5 99q0 79 -52.5 133.5t-152.5 54.5q-88 0 -137 -22.5t-72 -77.5q-10 -24 -74 -24q-28 0 -43.5 50.5 t-15.5 86.5z" />
<glyph unicode="3" horiz-adv-x="948" d="M92 6q0 10 14 15.5t58 9.5q201 19 314.5 105t113.5 186q0 34 -24.5 69t-88.5 88l-106 88q-35 27 -35 47q0 3 3 7.5t12.5 14.5t21 22t33.5 35.5t45 49.5q93 104 120 148.5t27 73.5q0 30 -141.5 65t-186.5 35q-37 0 -65 -15.5t-33 -15.5q-16 0 -27.5 13t-11.5 38 q0 36 17.5 92t44.5 56q21 0 85 -12.5t183.5 -47t241.5 -81.5q61 -24 61 -88q0 -23 -6 -37.5t-23 -34.5l-172 -213q-37 -45 -37 -80t60 -86l115 -96q55 -45 55 -111q0 -75 -39.5 -133.5t-138.5 -136.5q-45 -36 -178.5 -106t-172.5 -70q-32 0 -55 20l-63 53q-21 18 -21 33z " />
<glyph unicode="4" horiz-adv-x="1214" d="M76 319q0 21 17 51t77 111l504 676q17 22 56.5 42t62.5 20q26 0 26 -37q0 -6 -5 -114t-10 -276t-5 -321q0 -67 4.5 -82.5t21.5 -15.5q37 0 115 1t119 1q17 0 45.5 8t32.5 8q8 0 14 -8t6 -16q0 -21 -24 -76t-54 -55q-2 0 -9 2t-22 5t-38.5 6t-67.5 5t-100 2h-47 q3 -101 7 -169t6.5 -93.5t2.5 -32.5q0 -33 -49 -33q-34 0 -80.5 13.5t-46.5 40.5q0 5 5.5 16.5t6.5 21.5q19 157 19 220q0 13 -11 18.5t-43 5.5q-100 0 -283.5 -10t-185.5 -10q-17 0 -42 28t-25 47zM260 408q0 -37 160 -37q41 0 123.5 1t122.5 1q6 210 6 213q0 57 -1 172 t-1 174q-120 -108 -265 -298.5t-145 -225.5z" />
<glyph unicode="5" horiz-adv-x="985" d="M125 -82q0 49 10 63.5t43 14.5q94 0 142.5 15t111.5 67q77 62 127.5 138.5t50.5 137.5q0 40 -6 67.5t-16 51t-40.5 53.5t-63 57.5t-99.5 80.5l-186 147q-30 25 -39.5 39t-9.5 29q0 34 28 104l41 104q28 70 42 91.5t28 21.5q7 0 34.5 -14.5t71.5 -14.5h428q5 0 20 3.5 t25 3.5t19.5 -11t9.5 -22q0 -21 -36 -63t-58 -42q-58 0 -164 -1t-147 -1q-92 0 -109 11q-9 6 -25 6q-15 0 -44 -49.5t-29 -79.5q0 -28 36 -62.5t144 -103.5l123 -80q106 -69 138 -125t32 -164q0 -77 -32 -139t-142 -172q-58 -58 -206.5 -155t-211.5 -97q-21 0 -31 20t-10 70 z" />
<glyph unicode="6" horiz-adv-x="1175" d="M172 520q0 83 37.5 177.5t95.5 176.5t128 159t136.5 131.5t119.5 87t77 32.5q50 0 108 -11.5t58 -35.5q0 -18 -64 -44t-150 -66.5t-124 -86.5q-146 -175 -206 -309t-60 -280q0 -85 29 -161.5t94 -130t153 -53.5q68 0 117.5 21t76 57t38.5 75.5t12 84.5q0 130 -57 198 t-166 68q-17 0 -63 -9t-60 -9q-12 0 -22.5 8.5t-10.5 24.5q0 24 64 58t94 34q67 0 122.5 -13t94 -35t68 -52.5t46.5 -63t28 -70t14.5 -69.5t3.5 -66q0 -90 -59.5 -172t-149.5 -129t-181 -47q-90 0 -163 28.5t-119.5 76t-79.5 102.5t-49.5 117t-23.5 109t-7 87z" />
<glyph unicode="7" horiz-adv-x="948" d="M45 1118q0 20 16 61.5t31 41.5q12 0 25 -12.5t32 -25t44 -12.5h512q27 0 66 7.5t54 7.5q17 0 38.5 -34t21.5 -52q0 -16 -39 -72q-71 -98 -170 -282t-181.5 -389.5t-82.5 -305.5q0 -22 -37 -36.5t-62 -14.5t-76 16.5t-51 40.5q0 17 13.5 39.5t43.5 67t54 90.5l373 702 q41 77 41 91q0 10 -9 10q-7 0 -36 -13q-32 -16 -314 -16q-166 0 -268 10q-22 1 -30.5 28.5t-8.5 51.5z" />
<glyph unicode="8" horiz-adv-x="1138" d="M178 248q0 54 41 126.5t82 104.5l156 121q-134 87 -180 148.5t-46 125.5q0 46 26.5 94t61.5 81t66 54t43 21q11 0 35 -11.5t24 -20.5q0 -31 -18 -45q-90 -73 -90 -140q0 -47 9.5 -74t47 -62t117.5 -87q106 96 147 158.5t41 118.5q0 101 -47 145q-27 27 -141 37 q-9 0 -16 7t-7 15t16.5 36t28.5 38q29 25 66 25q100 0 178 -90t78 -181q0 -66 -66.5 -157t-189.5 -187q111 -67 164 -111.5t77.5 -99t24.5 -137.5q0 -74 -52.5 -148.5t-136.5 -121.5t-171 -47q-58 0 -140.5 14.5t-125.5 48.5q-43 36 -73 95t-30 106zM334 258 q0 -83 70 -131.5t161 -48.5q75 0 141 74t66 153q0 74 -68 143.5t-165 110.5q-109 -86 -157 -155t-48 -146z" />
<glyph unicode="9" horiz-adv-x="1138" d="M156 848q0 83 34 152.5t119 136.5q86 69 248 69q116 0 175 -16.5t114 -71.5q59 -59 98 -139t39 -135q0 -63 -23 -148.5t-69 -152.5q-53 -76 -131.5 -203t-106.5 -184q-24 -49 -63.5 -113t-59.5 -72q-23 -9 -71.5 -17.5t-61.5 -8.5q-32 0 -32 22q0 4 5 10.5t15 19t18 23.5 q147 205 221 314.5t121 202.5t58.5 149t11.5 137q0 27 -6 59t-24 72t-44.5 71.5t-73 53t-104.5 21.5q-59 0 -115.5 -27.5t-96.5 -88t-40 -140.5q0 -39 11 -72t36.5 -62t73 -45t113.5 -16q17 0 53 4t55 4q7 0 14 -4.5t7 -11.5q0 -25 -56 -76q-40 -37 -73.5 -48t-112.5 -11 q-35 0 -82.5 31t-90.5 78t-73 111t-30 122z" />
<glyph unicode=":" horiz-adv-x="569" d="M147 100q0 27 60.5 78t81.5 51q9 0 17.5 -7t25.5 -29q53 -72 53 -87q0 -29 -36.5 -67.5t-69.5 -38.5q-18 0 -42 13.5t-73 52.5q-17 14 -17 34zM172 639q0 35 29 51l78 45q20 10 38 10q27 0 66 -32.5t39 -55.5q0 -30 -60 -85.5t-90 -55.5q-14 0 -57 52.5t-43 70.5z" />
<glyph unicode=";" horiz-adv-x="569" d="M121 -178q0 8 18 49q40 105 92 319q9 41 23 58q15 19 40.5 34t45.5 15q16 0 45 -29t29 -53q0 -8 -4.5 -17.5t-13 -24.5t-13.5 -26l-133 -272q-23 -47 -39 -59.5t-41 -12.5q-23 0 -36 6t-13 13zM223 645q0 34 52.5 67t78.5 33q19 0 57 -41t38 -65q0 -19 -50.5 -71 t-76.5 -52q-23 0 -61 49t-38 80z" />
<glyph unicode="&#x3c;" horiz-adv-x="1161" d="M115 418v88l936 448v-94l-840 -395v-4l840 -400v-92z" />
<glyph unicode="=" horiz-adv-x="1161" d="M102 223v84h955v-84h-955zM102 623v84h955v-84h-955z" />
<glyph unicode="&#x3e;" horiz-adv-x="1161" d="M115 -31v92l837 398v4l-837 397v94l936 -450v-86z" />
<glyph unicode="?" horiz-adv-x="985" d="M162 1040q0 41 63.5 85t128 68t84.5 24q76 0 169 -24t136 -63q51 -45 72 -132t21 -167q0 -63 -36 -130.5t-87 -102.5q-194 -137 -244 -182q-22 -19 -55 -19q-31 0 -31 54q0 43 23 51q21 6 97.5 61t121.5 99q36 35 60 97.5t24 110.5q0 60 -35 113q-31 50 -68 84 q-63 55 -135 55q-44 0 -85.5 -23t-55.5 -71q-11 -34 -36.5 -55t-48.5 -27t-46 -6q-19 0 -28 32.5t-9 67.5zM348 84q0 22 36.5 83.5t57.5 61.5q17 0 52.5 -21t48.5 -34q20 -20 25 -38.5t5 -72.5q0 -63 -81 -63q-8 0 -29 4.5t-48 13.5t-47 26.5t-20 39.5z" />
<glyph unicode="@" horiz-adv-x="1609" d="M94 383q0 104 34 202t100 180t157 144t212 96.5t257 34.5q124 0 230 -28.5t182 -78.5t130 -117.5t80.5 -146t26.5 -163.5q0 -93 -35.5 -169.5t-92 -123t-122 -71.5t-131.5 -25q-64 0 -108 41t-47 121h-6q-53 -73 -128.5 -117.5t-166.5 -44.5q-96 0 -161 63t-65 170 q0 170 133 286t328 116q135 0 240 -41l-72 -318q-20 -106 -1 -153t71 -47q30 -1 64.5 8.5t72.5 32.5t68 57t49.5 88t19.5 119q0 207 -153 340t-424 133q-94 0 -188 -26.5t-176.5 -78t-146.5 -121t-101.5 -161t-37.5 -191.5q0 -121 45.5 -218.5t124.5 -160t183.5 -96 t224.5 -33.5q189 0 317 70l27 -66q-157 -75 -356 -75q-300 0 -479 159.5t-179 409.5zM545 360q0 -68 41 -115.5t123 -47.5q89 0 170 85t102 175l45 196q-55 19 -139 19q-139 0 -240.5 -93t-101.5 -219z" />
<glyph unicode="A" horiz-adv-x="1366" d="M23 33q0 28 5 38t19 13q84 20 115 106q3 9 109 201t202 397.5t96 286.5q0 7 -13 43t-13 43q0 20 43 46t67 26q13 0 38.5 -26t41.5 -60q18 -37 87 -186t127 -264t128 -238q55 -96 102.5 -171t75.5 -113t48 -63t28 -34.5t8 -14.5q0 -36 -47 -36q-23 0 -81 9t-79 15 q-32 8 -51 74q-12 42 -67.5 153t-73.5 119q-36 19 -155.5 27t-219.5 8q-102 0 -128 -9.5t-44 -55.5q-14 -38 -72 -153t-63 -140q-10 -57 -39 -60q-21 -2 -64 -5.5t-74 -6t-36 -2.5q-9 0 -14.5 11t-5.5 22zM479 541q0 -15 35 -15h371l-162 318q-13 23 -23.5 50.5t-16 37.5 t-13.5 10q-7 0 -14 -14t-14.5 -39t-12.5 -35l-107 -217q-43 -85 -43 -96z" />
<glyph unicode="B" horiz-adv-x="1099" d="M190 1055q0 12 12.5 23.5t73 45.5t187.5 97q24 12 76 12q156 0 236.5 -45.5t80.5 -151.5q0 -58 -8 -94t-36.5 -73.5t-76 -71.5t-133.5 -82q42 -14 94.5 -47.5t103 -78t84.5 -101.5t34 -109q0 -69 -52.5 -133t-127 -107t-155.5 -76t-138.5 -48t-75.5 -15q-93 0 -124.5 8.5 t-31.5 32.5q0 11 22 37.5t25 44.5q12 69 24.5 223.5t12.5 294.5q0 162 -4 232.5t-12.5 92.5t-30.5 35q-4 2 -11.5 6t-11 6t-9.5 5.5t-8.5 5.5t-6.5 5t-6 5.5t-4 6t-2.5 7t-0.5 7.5zM403 309q0 -62 1 -92t5.5 -48.5t10.5 -22t20 -3.5q41 0 94 12t107.5 35.5t91.5 65.5t37 94 q0 69 -91.5 154.5t-184.5 120.5q-47 -15 -66 -37q-25 -28 -25 -279zM424 752q31 -31 51 -31q29 0 85 46.5t102.5 113.5t46.5 116q0 59 -55 106.5t-144 47.5q-86 0 -86 -78v-321z" />
<glyph unicode="C" horiz-adv-x="1214" d="M213 492q0 123 25.5 226.5t67 175t99.5 127.5t118.5 89.5t128.5 55t124 29t111 7.5q78 0 129 -31t51 -65q0 -25 -42.5 -63.5t-68.5 -38.5q-10 0 -23 14.5t-26 31.5t-38 31.5t-56 14.5q-81 0 -150 -25.5t-115.5 -65.5t-83 -94t-58 -108t-35 -110t-18.5 -96t-5 -71 q0 -48 16.5 -105.5t48.5 -114.5t74.5 -103.5t100 -75.5t119.5 -29q69 0 135 26t106.5 57t77 57t51.5 26q20 0 31.5 -12t11.5 -31q0 -20 -53 -75.5t-115 -90.5q-41 -24 -131.5 -43.5t-171.5 -19.5q-50 0 -105 15.5t-115 53t-107 92.5t-78 143.5t-31 195.5z" />
<glyph unicode="D" horiz-adv-x="1327" d="M193 1102q0 29 14.5 40.5t68.5 27.5l144 40q85 23 115 23q12 0 38.5 -2.5t80.5 -14t107 -30.5t112.5 -57.5t104 -88.5t74 -129.5t29.5 -175.5q0 -212 -28 -330.5t-101 -220.5q-39 -55 -147.5 -106.5t-199.5 -77t-120 -25.5q-16 0 -44 4.5t-31 4.5l-115 16q-37 5 -51.5 12 t-14.5 23q0 14 9 25.5t20.5 21t22 35t12.5 63.5q14 284 14 492q0 86 -11 196.5t-24 171.5q-3 15 -16.5 21.5t-27 6t-24.5 7.5t-11 27zM432 213q0 -74 15.5 -96.5t54.5 -22.5q80 0 142.5 15t118.5 55t92.5 104.5t57.5 167t21 240.5q0 97 -30 177.5t-74 129t-96 82.5 t-92.5 47.5t-66.5 13.5q-33 0 -73.5 -13t-67.5 -30v-579q0 -53 -1 -152t-1 -139z" />
<glyph unicode="E" horiz-adv-x="985" d="M221 510q0 159 25 284.5t66.5 206.5t99.5 134.5t121 75.5t135 22q84 0 115.5 -13.5t31.5 -48.5q0 -21 -10.5 -33t-28.5 -12h-121q-42 0 -77 -12.5t-70 -46.5t-60.5 -89t-44.5 -145t-26 -210q41 32 92 32h276q39 0 39 -24q0 -14 -38.5 -47.5t-57.5 -34.5q-76 -6 -311 -12 q0 -247 97.5 -370.5t305.5 -123.5q45 0 60.5 -8.5t15.5 -34.5q0 -21 -33.5 -36t-105.5 -15q-97 0 -174.5 20t-128.5 51t-88 79t-57 94t-31 107.5t-14 106.5t-3 103z" />
<glyph unicode="F" horiz-adv-x="1099" d="M211 1081q0 23 47 68t74 45q12 0 58.5 -5t90.5 -5q101 0 286 9t200 9q22 0 22 -20q0 -16 -18 -43.5t-35 -30.5q-72 -13 -258 -31.5t-219 -23.5q-10 -2 -15.5 -11.5t-9.5 -42.5q-8 -80 -8 -297q0 -17 1 -51.5t1 -52.5h162q80 0 188.5 11.5t132.5 11.5q39 0 39 -37 q0 -31 -14 -50.5t-35 -19.5q-69 0 -240.5 -17t-240.5 -30v-428q0 -60 -12 -135.5t-37 -75.5q-23 0 -52.5 18.5t-29.5 36.5q0 15 3 60t6 153.5t3 278.5q0 48 -14.5 91.5t-14.5 68.5q0 21 9.5 60.5t9.5 63.5q0 59 -23 295q-57 81 -57 127z" />
<glyph unicode="G" horiz-adv-x="1290" d="M213 516q0 103 24.5 200.5t78 186t131 155t191 105.5t249.5 39q239 0 239 -106q0 -29 -38.5 -55.5t-61.5 -26.5q-13 0 -29 11.5t-61 53.5q-31 29 -84 29q-77 0 -153 -39.5t-135.5 -105t-106.5 -146t-72 -167.5t-25 -165q0 -86 16 -150t43 -102.5t67.5 -61.5t83 -31.5 t96.5 -8.5q103 0 177 45t81 96l16 123q3 19 19 27t59 8q15 0 21.5 -3t12 -22t6.5 -53t1 -102q0 -104 9 -223.5t9 -145.5q0 -29 -12 -41t-47 -12q-24 0 -37.5 31t-30.5 135q-4 31 -18 43t-43 12q-5 0 -81 -12t-122 -12q-107 0 -192.5 35.5t-136.5 88.5t-85 122t-46.5 129 t-12.5 116z" />
<glyph unicode="H" horiz-adv-x="1441" d="M195 1094q0 18 36 54t76 36q39 0 97.5 -27.5t58.5 -46.5q0 -8 -16 -53.5t-17 -83.5q0 -159 -6 -309h545q4 110 4 196q0 54 -6 131t-6 88q0 26 64 47t108 21q19 0 30 -8t11 -21q0 -8 -19 -42t-27 -85q-20 -120 -20 -325q46 4 68 4q19 0 26.5 -6t7.5 -25q0 -23 -13.5 -52.5 t-35.5 -29.5q-3 0 -14 2t-19 2q-20 0 -20 -24l-4 -404q0 -29 -19.5 -67.5t-44.5 -38.5q-30 0 -41 10.5t-12 42.5l-20 477q-121 0 -306.5 -11.5t-240.5 -25.5q-10 -29 -10 -76v-348q0 -96 -93 -96q-22 0 -30 12t-8 39q0 67 6 222.5t6 242.5q0 247 -8 451q-1 28 -23 51 t-43.5 41.5t-21.5 34.5z" />
<glyph unicode="I" d="M217 1073q0 26 62 77.5t90 51.5q23 0 51.5 -17.5t28.5 -29.5q0 -16 -10 -52t-11 -59q-18 -272 -18 -882q0 -118 -15 -161.5t-51 -43.5q-26 0 -37 12.5t-20 85t-11 197.5t-2 381q0 81 -3 170t-3 115q0 63 -16 81q-35 40 -35 74z" />
<glyph unicode="J" d="M-72 -143q0 16 7.5 23t27.5 7q9 0 41 -2t64 -2q88 0 161.5 113t73.5 301q0 411 -7.5 563t-31.5 225q-5 15 -16 23t-21 10.5t-18 11t-8 25.5q0 23 76.5 79t107.5 56q18 0 33.5 -16.5t15.5 -40.5q0 -32 2 -179t2 -245v-330q0 -139 -22 -254.5t-56 -190t-78.5 -131.5 t-85.5 -86.5t-81 -48t-61.5 -23.5t-30.5 -5q-26 0 -60.5 43.5t-34.5 73.5z" />
<glyph unicode="K" horiz-adv-x="1630" d="M195 1153q0 13 10 23q79 61 98.5 74.5t28.5 13.5q14 0 52 -30t38 -52q0 -26 -15.5 -183t-15.5 -247l51 -19l437 342q37 29 65 56.5t38 41.5t21.5 22.5t24.5 8.5q6 0 14 -3t26 -12t32 -15q13 -6 27 -34t14 -46q0 -26 -39 -31q-40 -6 -252 -151.5t-287 -213.5 q12 -7 184 -117.5t370 -229t353 -195.5q21 -10 61 -17t65.5 -14.5t25.5 -22.5q0 -23 -56 -78t-83 -55q-6 0 -11 1t-11.5 3.5t-11 5t-13 8t-14 9.5t-18 12.5t-20.5 14.5q-322 224 -548 367.5t-321 193t-124 49.5q0 -73 3 -277.5t3 -249.5q0 -25 -43.5 -65.5t-66.5 -40.5 q-15 0 -21 17.5t-6 72.5q0 8 5 184.5t5 307.5q0 192 -22 493q-2 23 -15 38.5t-25.5 24t-12.5 15.5z" />
<glyph unicode="L" horiz-adv-x="1062" d="M236 1161q0 21 64 70t87 49t47.5 -14t24.5 -35q0 -11 -8.5 -45.5t-8.5 -55.5q0 -63 -6 -183t-6 -175q0 -36 2 -107t2 -118q0 -101 -12 -254t-12 -162q0 -16 24 -16q6 0 22 4t25 4l371 14q20 1 57.5 19t51.5 18q34 0 34 -27q0 -21 -21 -84t-42 -63t-80 20q-27 9 -223 9 q-204 0 -234 -15q-28 -14 -63 -14q-22 0 -50 44t-28 60q0 9 20 38.5t21 60.5q4 88 4 479q0 112 -6.5 199t-15.5 134t-18.5 77.5t-16 46t-6.5 22.5z" />
<glyph unicode="M" horiz-adv-x="2390" d="M154 43q0 28 45 78q66 72 136.5 267t70.5 300q0 77 -22.5 148t-55 120.5t-65 89.5t-55 71t-22.5 50q0 17 40 26t77 9q30 0 87.5 -68t211.5 -292q74 -109 191 -238t253 -234.5t218 -105.5q67 0 154 33.5t179 98t175 148t149 195t94 228.5q22 92 47 92q22 0 57 -14.5 t35 -36.5q0 -12 -14 -84.5t-27.5 -196t-13.5 -256.5q0 -67 17.5 -133.5t39 -108.5t39 -81t17.5 -58q0 -16 -47.5 -40.5t-73.5 -24.5q-44 0 -57 122q-10 90 -30.5 229.5t-31.5 192.5l-127 -114q-146 -132 -304 -208.5t-298 -76.5q-115 0 -226.5 62t-268.5 229l-207 219 q-36 -126 -83 -275.5t-75.5 -242.5t-38.5 -139q-8 -36 -23 -45t-73 -9q-27 0 -60.5 28t-33.5 46z" />
<glyph unicode="N" horiz-adv-x="1896" d="M106 1122q0 20 28.5 42t64.5 22q9 0 20 -7t52 -43t116 -108q323 -311 563 -488t559 -343q17 169 17 276q0 143 -13 477q-1 38 -11.5 66t-21.5 41t-20.5 28t-9.5 29q0 31 51 48.5t98 17.5q68 0 68 -41q0 -3 -8.5 -58.5t-17.5 -221.5t-9 -437q0 -108 11.5 -213.5 t11.5 -130.5q0 -47 -49 -78t-86 -31q-14 0 -27 28.5t-36 68t-58 59.5q-468 269 -627.5 375t-279.5 219q0 -3 -19.5 -263.5t-42.5 -377.5q-9 -44 -31.5 -69t-48.5 -25q-25 0 -55.5 18t-30.5 41q0 15 17 64t37.5 110t37.5 173.5t17 238.5q0 95 -26 163.5t-85 131.5 q-102 111 -129 145t-27 53z" />
<glyph unicode="O" horiz-adv-x="1290" d="M180 559q0 83 18 164t59 158.5t100 136.5t149 95t199 36q84 0 156 -32.5t128.5 -97t88.5 -171t32 -244.5q0 -131 -42 -239t-112.5 -177t-159 -106t-184.5 -37q-79 0 -155 33.5t-138.5 95.5t-100.5 162t-38 223zM328 592q0 -28 6.5 -65.5t20.5 -86t40.5 -94t62 -84.5 t89.5 -62.5t119 -23.5q38 0 76.5 10t81.5 38t75.5 71t54 117t21.5 168q0 121 -25.5 211t-70 140.5t-98 74.5t-115.5 24q-104 0 -182 -61t-117 -159t-39 -218z" />
<glyph unicode="P" horiz-adv-x="1062" d="M207 1087q0 34 58.5 69.5t126.5 56t108 20.5q131 0 252 -51q53 -23 101 -97t48 -129q0 -143 -35 -196q-44 -68 -123.5 -144.5t-113.5 -76.5q-31 0 -84 26.5t-53 40.5q0 21 49 31q95 20 154 85t59 146q0 35 -8 75.5t-25 83.5t-50.5 71t-78.5 28q-83 0 -162 -49 q-22 -207 -22 -379v-540q0 -115 -26.5 -168t-88.5 -53q-35 0 -35 30q0 7 6 24t11.5 54.5t5.5 95.5v305q0 405 -21 566q-4 30 -22 39q-31 15 -31 36z" />
<glyph unicode="Q" horiz-adv-x="1402" d="M180 616q0 104 44.5 212.5t118 195t176 142t210.5 55.5q109 0 194.5 -33t134 -80.5t80 -107t42 -105.5t10.5 -84q0 -73 -18 -143.5t-47.5 -125.5t-65.5 -104t-72 -83.5t-67.5 -60t-52 -38t-25.5 -12.5q-23 0 -58.5 8.5t-35.5 28.5q0 6 6 10.5t37 25.5q72 48 122 104.5 t75.5 117t35.5 115t10 116.5q0 141 -75 236.5t-209 95.5q-45 0 -100 -16.5t-114.5 -52.5t-108.5 -86t-80.5 -124t-31.5 -159q0 -33 9.5 -73t36 -96.5t68 -114.5t112.5 -124.5t161 -128t222 -125t288 -115.5q129 -43 190 -54t154 -11q129 0 191 20q18 6 29 6q15 0 22.5 -9 t7.5 -19q0 -8 -10.5 -24t-26.5 -25l-98 -62q-30 -18 -55 -18q-134 0 -480 112t-520 215q-137 82 -238.5 191.5t-149.5 214t-48 192.5z" />
<glyph unicode="R" horiz-adv-x="1138" d="M231 1075q0 34 27 53q92 65 199.5 100.5t163.5 35.5q121 0 186 -77t65 -200q0 -120 -49.5 -199t-113.5 -108l-146 -66v-4q48 -7 68 -32q63 -78 133.5 -154t124.5 -127t99.5 -92.5t70 -65t24.5 -30.5q0 -28 -26 -54l-7 -7l-6 -6l-5.5 -5.5l-5 -5t-4 -3.5t-4 -3t-3.5 -2 t-4 -1.5l-4 -1t-4 -0.5h-33q-33 0 -59 31q-12 14 -40 48t-63.5 75.5t-77.5 87.5l-221 240q-32 37 -90 37q-4 -86 -4 -162v-334q0 -43 -39 -43q-35 0 -92.5 24t-57.5 50q0 16 39 65q13 18 20 180t7 275q0 289 -12 407q-1 13 -10.5 20.5t-19.5 10.5t-18 13.5t-8 29.5zM426 674 q6 -17 37 -17q10 0 49 21t88 56.5t87 96t38 127.5q0 96 -38.5 141.5t-100.5 45.5q-37 0 -75 -17.5t-60 -48.5q-10 -38 -17.5 -133t-7.5 -184v-88z" />
<glyph unicode="S" horiz-adv-x="796" d="M166 84q0 21 9 31t20 10q15 0 67.5 -19.5t95.5 -19.5q53 0 88 37t35 84q0 55 -40.5 153.5t-89.5 189.5t-89.5 189t-40.5 152q0 28 17.5 75.5t50 101.5t72.5 102t92 80t102 32q45 0 104.5 -15.5t59.5 -43.5q0 -41 -16 -54t-72 -14q-128 -3 -191 -60.5t-63 -146.5 q0 -47 35 -134.5t76.5 -173t76.5 -193t35 -189.5q0 -17 -6 -49.5t-23.5 -79.5t-43 -87.5t-70 -69.5t-99.5 -29q-40 0 -105.5 23t-72.5 44q-14 44 -14 74z" />
<glyph unicode="T" horiz-adv-x="1024" d="M35 1100q0 15 22 38t39 23q8 0 126.5 -8t254.5 -8q75 0 225.5 8t225.5 8q30 0 30 -28q0 -17 -32.5 -50t-59.5 -36q-75 -7 -297 -13q-41 -240 -41 -753q0 -35 8.5 -65t27 -57.5t55.5 -43t88 -15.5q9 0 35 3t32 3q21 0 21 -43q0 -31 -19 -47q-22 -19 -62 -33t-71 -14 q-113 0 -188.5 79t-75.5 161q0 16 7.5 71.5t15.5 156.5t8 229q0 211 -15 360h-233q-12 0 -38 -2t-40 -2q-23 0 -36 24t-13 54z" />
<glyph unicode="U" horiz-adv-x="1857" d="M43 1075q0 40 47 60q20 9 67.5 19.5t69.5 10.5q39 0 39 -51q0 -15 -5 -72t-5 -94q0 -55 47.5 -148.5t128.5 -195.5t175.5 -193t201 -150.5t192.5 -59.5q100 0 189 46.5t151 121t111 163t77.5 178t43 159.5t14.5 114v42.5t1.5 34t4.5 29.5t8.5 19.5t14 14t20.5 3.5 q25 0 109 -41q20 -10 27.5 -20.5t7.5 -32.5q0 -12 -14 -57.5t-40 -117t-67.5 -157t-92.5 -175.5t-120 -173.5t-145 -149.5t-172 -105.5t-197 -39.5q-78 0 -178 58.5t-196.5 150.5t-191 207.5t-165.5 227.5t-114.5 212.5t-43.5 161.5z" />
<glyph unicode="V" horiz-adv-x="1744" d="M4 1112q0 30 72 75.5t98 45.5q35 0 35 -43q0 -46 110 -186.5t246 -289t278 -306.5t185 -218q51 40 130.5 138.5t160.5 222.5t144 266.5t73 249.5q3 32 11.5 42.5t27.5 10.5q33 0 96.5 -32t63.5 -56q0 -43 -165 -298.5t-345 -494.5t-217 -239q-16 0 -45 18.5t-29 32.5 q0 19 -17.5 45t-80.5 103q-175 216 -329 387t-241 255t-151 143t-87.5 84t-23.5 44z" />
<glyph unicode="W" horiz-adv-x="1933" d="M31 1126q0 22 64.5 64.5t90.5 42.5q37 0 37 -35q0 -87 149 -460.5t230 -524.5q10 15 74.5 112t116.5 175.5t107 171t73 137.5q14 36 25 47.5t26 11.5q17 0 46.5 -11t29.5 -23q0 -42 63.5 -206t182.5 -395q28 69 133 272t190.5 374t85.5 204q0 35 9.5 48.5t29.5 13.5 q22 0 75.5 -35.5t53.5 -50.5q0 -16 -15 -41t-67 -104.5t-108 -176.5q-127 -219 -230.5 -429t-111.5 -261q-3 -22 -12 -34.5t-21 -12.5q-100 0 -113 49q-38 137 -107.5 310t-131.5 231q-115 -138 -237 -315t-130 -238q-3 -20 -48 -36.5t-75 -16.5q-21 0 -30 11.5t-9 43.5 q0 170 -358 919q-19 39 -42.5 76.5t-34.5 57t-11 34.5z" />
<glyph unicode="X" horiz-adv-x="1290" d="M-197 1165q0 27 61.5 47.5t112.5 20.5q48 0 62 -13.5t14 -56.5q0 -50 41.5 -104.5t174.5 -170.5t427 -349q128 141 251.5 307.5t123.5 216.5q0 47 215 47q45 0 45 -31q0 -11 -17 -31t-44 -40q-23 -16 -223 -225.5t-279 -301.5l139 -106q147 -113 266 -183.5t148 -74.5 q34 -5 42.5 -8t8.5 -13q0 -30 -51 -71t-78 -41q-31 0 -227 149l-332 254q-72 -81 -134 -158t-94 -120.5t-58.5 -78t-42.5 -48t-31 -13.5q-26 0 -82 22.5t-56 45.5q0 22 37 41q118 62 387 366q-219 164 -376 290t-238.5 197.5t-127 123t-55.5 72t-10 38.5z" />
<glyph unicode="Y" horiz-adv-x="1744" d="M2 1135q0 21 49 59.5t94 38.5q10 0 16.5 -10t11 -23.5t14.5 -32t24 -32.5q187 -178 413.5 -368.5t348.5 -297t157 -170.5q43 90 200 346.5t196 323.5q41 72 41 129q0 6 -2 17.5t-2 17.5q0 24 26 24q31 0 88.5 -22.5t57.5 -42.5q0 -30 -86 -168.5t-221.5 -341.5 t-180.5 -275q-30 -48 -43.5 -113t-13.5 -198q0 -16 2 -52.5t2 -56.5q0 -26 -66 -42.5t-98 -16.5q-16 0 -16 22t12 50t24.5 71.5t12.5 104.5q0 46 -8 78t-45 85.5t-97.5 111.5t-182.5 161t-281.5 228t-411.5 319q-35 26 -35 76z" />
<glyph unicode="Z" horiz-adv-x="1402" d="M59 205q0 50 18 80.5t70 74.5q94 79 347.5 329t330.5 341q-102 4 -294.5 18.5t-239.5 16.5q-24 1 -36.5 18.5t-12.5 40.5q0 35 23.5 72t53.5 37q21 0 77 -27.5t85 -29.5q359 -27 439 -27q11 0 33.5 9t35.5 9q11 0 25 -30t14 -58q0 -11 -26.5 -41.5t-116.5 -122.5 l-592 -602q-38 -38 -47.5 -50t-9.5 -23q0 -37 169 -105t391 -122t353 -54q87 0 131 31q40 28 66 28q12 0 27.5 -8.5t15.5 -19.5q0 -17 -61 -89.5t-87 -72.5q-21 0 -142 18t-296.5 53t-342 79t-284 105t-117.5 122z" />
<glyph unicode="[" d="M240 -133q0 5 4 18.5t4 24.5q0 72 7 220t7 216v412q0 26 2 88t2 104q0 67 -5 172t-5 135q0 52 33 52q49 0 152 12t139 12q7 0 13.5 -15.5t6.5 -25.5q0 -13 -14 -16q-73 -15 -156 -53q-18 -8 -20 -41q-29 -412 -29 -598q0 -76 6 -229t6 -214q0 -43 -2 -100.5t-2 -69.5 q0 -7 -8 -15t-8 -13q0 -12 14 -15l125 -12q48 -4 61 -12.5t13 -32.5q0 -27 -7.5 -35t-27.5 -8t-142.5 7.5t-144.5 10.5q-11 1 -17.5 7.5t-6.5 13.5z" />
<glyph unicode="\" d="M2 1200h104l574 -1270h-105z" />
<glyph unicode="]" d="M82 -131q0 13 14 16q69 15 156 54q18 8 20 41q29 412 29 598q0 76 -6 228.5t-6 213.5q0 43 2 100.5t2 69.5q0 8 8 16t8 13q0 11 -14 14l-125 12q-48 4 -61 12.5t-13 32.5q0 27 7.5 35t27.5 8t142.5 -7.5t144.5 -10.5q11 -1 17.5 -7.5t6.5 -13.5q0 -5 -4 -18.5t-4 -24.5 q0 -72 -7 -220t-7 -216v-412q0 -26 -2 -88t-2 -104q0 -67 5 -172t5 -135q0 -51 -33 -51q-49 0 -152 -12.5t-139 -12.5q-7 0 -13.5 15.5t-6.5 25.5z" />
<glyph unicode="^" horiz-adv-x="1044" d="M88 334l387 801h90l387 -801h-94l-340 717l-338 -717h-92z" />
<glyph unicode="_" horiz-adv-x="1024" d="M0 -154h1024v-102h-1024v102z" />
<glyph unicode="`" horiz-adv-x="569" d="M137 1460q0 19 24.5 45.5t41.5 26.5q55 0 65 -31q28 -86 82 -143q13 -14 25.5 -28t20 -22t14.5 -16l10.5 -12t6.5 -8t4 -6t1 -4q0 -8 -23 -14.5t-34 -6.5q-24 0 -82 42.5t-107 96t-49 80.5z" />
<glyph unicode="a" horiz-adv-x="1366" d="M23 33q0 28 5 38t19 13q84 20 115 106q3 9 109 201t202 397.5t96 286.5q0 7 -13 43t-13 43q0 20 43 46t67 26q13 0 38.5 -26t41.5 -60q18 -37 87 -186t127 -264t128 -238q55 -96 102.5 -171t75.5 -113t48 -63t28 -34.5t8 -14.5q0 -36 -47 -36q-23 0 -81 9t-79 15 q-32 8 -51 74q-12 42 -67.5 153t-73.5 119q-36 19 -155.5 27t-219.5 8q-102 0 -128 -9.5t-44 -55.5q-14 -38 -72 -153t-63 -140q-10 -57 -39 -60q-21 -2 -64 -5.5t-74 -6t-36 -2.5q-9 0 -14.5 11t-5.5 22zM479 541q0 -15 35 -15h371l-162 318q-13 23 -23.5 50.5t-16 37.5 t-13.5 10q-7 0 -14 -14t-14.5 -39t-12.5 -35l-107 -217q-43 -85 -43 -96z" />
<glyph unicode="b" horiz-adv-x="1099" d="M190 1055q0 12 12.5 23.5t73 45.5t187.5 97q24 12 76 12q156 0 236.5 -45.5t80.5 -151.5q0 -58 -8 -94t-36.5 -73.5t-76 -71.5t-133.5 -82q42 -14 94.5 -47.5t103 -78t84.5 -101.5t34 -109q0 -69 -52.5 -133t-127 -107t-155.5 -76t-138.5 -48t-75.5 -15q-93 0 -124.5 8.5 t-31.5 32.5q0 11 22 37.5t25 44.5q12 69 24.5 223.5t12.5 294.5q0 162 -4 232.5t-12.5 92.5t-30.5 35q-4 2 -11.5 6t-11 6t-9.5 5.5t-8.5 5.5t-6.5 5t-6 5.5t-4 6t-2.5 7t-0.5 7.5zM403 309q0 -62 1 -92t5.5 -48.5t10.5 -22t20 -3.5q41 0 94 12t107.5 35.5t91.5 65.5t37 94 q0 69 -91.5 154.5t-184.5 120.5q-47 -15 -66 -37q-25 -28 -25 -279zM424 752q31 -31 51 -31q29 0 85 46.5t102.5 113.5t46.5 116q0 59 -55 106.5t-144 47.5q-86 0 -86 -78v-321z" />
<glyph unicode="c" horiz-adv-x="1214" d="M213 492q0 123 25.5 226.5t67 175t99.5 127.5t118.5 89.5t128.5 55t124 29t111 7.5q78 0 129 -31t51 -65q0 -25 -42.5 -63.5t-68.5 -38.5q-10 0 -23 14.5t-26 31.5t-38 31.5t-56 14.5q-81 0 -150 -25.5t-115.5 -65.5t-83 -94t-58 -108t-35 -110t-18.5 -96t-5 -71 q0 -48 16.5 -105.5t48.5 -114.5t74.5 -103.5t100 -75.5t119.5 -29q69 0 135 26t106.5 57t77 57t51.5 26q20 0 31.5 -12t11.5 -31q0 -20 -53 -75.5t-115 -90.5q-41 -24 -131.5 -43.5t-171.5 -19.5q-50 0 -105 15.5t-115 53t-107 92.5t-78 143.5t-31 195.5z" />
<glyph unicode="d" horiz-adv-x="1327" d="M193 1102q0 29 14.5 40.5t68.5 27.5l144 40q85 23 115 23q12 0 38.5 -2.5t80.5 -14t107 -30.5t112.5 -57.5t104 -88.5t74 -129.5t29.5 -175.5q0 -212 -28 -330.5t-101 -220.5q-39 -55 -147.5 -106.5t-199.5 -77t-120 -25.5q-16 0 -44 4.5t-31 4.5l-115 16q-37 5 -51.5 12 t-14.5 23q0 14 9 25.5t20.5 21t22 35t12.5 63.5q14 284 14 492q0 86 -11 196.5t-24 171.5q-3 15 -16.5 21.5t-27 6t-24.5 7.5t-11 27zM432 213q0 -74 15.5 -96.5t54.5 -22.5q80 0 142.5 15t118.5 55t92.5 104.5t57.5 167t21 240.5q0 97 -30 177.5t-74 129t-96 82.5 t-92.5 47.5t-66.5 13.5q-33 0 -73.5 -13t-67.5 -30v-579q0 -53 -1 -152t-1 -139z" />
<glyph unicode="e" horiz-adv-x="985" d="M221 510q0 159 25 284.5t66.5 206.5t99.5 134.5t121 75.5t135 22q84 0 115.5 -13.5t31.5 -48.5q0 -21 -10.5 -33t-28.5 -12h-121q-42 0 -77 -12.5t-70 -46.5t-60.5 -89t-44.5 -145t-26 -210q41 32 92 32h276q39 0 39 -24q0 -14 -38.5 -47.5t-57.5 -34.5q-76 -6 -311 -12 q0 -247 97.5 -370.5t305.5 -123.5q45 0 60.5 -8.5t15.5 -34.5q0 -21 -33.5 -36t-105.5 -15q-97 0 -174.5 20t-128.5 51t-88 79t-57 94t-31 107.5t-14 106.5t-3 103z" />
<glyph unicode="f" horiz-adv-x="1099" d="M211 1081q0 23 47 68t74 45q12 0 58.5 -5t90.5 -5q101 0 286 9t200 9q22 0 22 -20q0 -16 -18 -43.5t-35 -30.5q-72 -13 -258 -31.5t-219 -23.5q-10 -2 -15.5 -11.5t-9.5 -42.5q-8 -80 -8 -297q0 -17 1 -51.5t1 -52.5h162q80 0 188.5 11.5t132.5 11.5q39 0 39 -37 q0 -31 -14 -50.5t-35 -19.5q-69 0 -240.5 -17t-240.5 -30v-428q0 -60 -12 -135.5t-37 -75.5q-23 0 -52.5 18.5t-29.5 36.5q0 15 3 60t6 153.5t3 278.5q0 48 -14.5 91.5t-14.5 68.5q0 21 9.5 60.5t9.5 63.5q0 59 -23 295q-57 81 -57 127z" />
<glyph unicode="g" horiz-adv-x="1290" d="M213 516q0 103 24.5 200.5t78 186t131 155t191 105.5t249.5 39q239 0 239 -106q0 -29 -38.5 -55.5t-61.5 -26.5q-13 0 -29 11.5t-61 53.5q-31 29 -84 29q-77 0 -153 -39.5t-135.5 -105t-106.5 -146t-72 -167.5t-25 -165q0 -86 16 -150t43 -102.5t67.5 -61.5t83 -31.5 t96.5 -8.5q103 0 177 45t81 96l16 123q3 19 19 27t59 8q15 0 21.5 -3t12 -22t6.5 -53t1 -102q0 -104 9 -223.5t9 -145.5q0 -29 -12 -41t-47 -12q-24 0 -37.5 31t-30.5 135q-4 31 -18 43t-43 12q-5 0 -81 -12t-122 -12q-107 0 -192.5 35.5t-136.5 88.5t-85 122t-46.5 129 t-12.5 116z" />
<glyph unicode="h" horiz-adv-x="1441" d="M195 1094q0 18 36 54t76 36q39 0 97.5 -27.5t58.5 -46.5q0 -8 -16 -53.5t-17 -83.5q0 -159 -6 -309h545q4 110 4 196q0 54 -6 131t-6 88q0 26 64 47t108 21q19 0 30 -8t11 -21q0 -8 -19 -42t-27 -85q-20 -120 -20 -325q46 4 68 4q19 0 26.5 -6t7.5 -25q0 -23 -13.5 -52.5 t-35.5 -29.5q-3 0 -14 2t-19 2q-20 0 -20 -24l-4 -404q0 -29 -19.5 -67.5t-44.5 -38.5q-30 0 -41 10.5t-12 42.5l-20 477q-121 0 -306.5 -11.5t-240.5 -25.5q-10 -29 -10 -76v-348q0 -96 -93 -96q-22 0 -30 12t-8 39q0 67 6 222.5t6 242.5q0 247 -8 451q-1 28 -23 51 t-43.5 41.5t-21.5 34.5z" />
<glyph unicode="i" d="M217 1073q0 26 62 77.5t90 51.5q23 0 51.5 -17.5t28.5 -29.5q0 -16 -10 -52t-11 -59q-18 -272 -18 -882q0 -118 -15 -161.5t-51 -43.5q-26 0 -37 12.5t-20 85t-11 197.5t-2 381q0 81 -3 170t-3 115q0 63 -16 81q-35 40 -35 74z" />
<glyph unicode="j" d="M-72 -143q0 16 7.5 23t27.5 7q9 0 41 -2t64 -2q88 0 161.5 113t73.5 301q0 411 -7.5 563t-31.5 225q-5 15 -16 23t-21 10.5t-18 11t-8 25.5q0 23 76.5 79t107.5 56q18 0 33.5 -16.5t15.5 -40.5q0 -32 2 -179t2 -245v-330q0 -139 -22 -254.5t-56 -190t-78.5 -131.5 t-85.5 -86.5t-81 -48t-61.5 -23.5t-30.5 -5q-26 0 -60.5 43.5t-34.5 73.5z" />
<glyph unicode="k" horiz-adv-x="1630" d="M195 1153q0 13 10 23q79 61 98.5 74.5t28.5 13.5q14 0 52 -30t38 -52q0 -26 -15.5 -183t-15.5 -247l51 -19l437 342q37 29 65 56.5t38 41.5t21.5 22.5t24.5 8.5q6 0 14 -3t26 -12t32 -15q13 -6 27 -34t14 -46q0 -26 -39 -31q-40 -6 -252 -151.5t-287 -213.5 q12 -7 184 -117.5t370 -229t353 -195.5q21 -10 61 -17t65.5 -14.5t25.5 -22.5q0 -23 -56 -78t-83 -55q-6 0 -11 1t-11.5 3.5t-11 5t-13 8t-14 9.5t-18 12.5t-20.5 14.5q-322 224 -548 367.5t-321 193t-124 49.5q0 -73 3 -277.5t3 -249.5q0 -25 -43.5 -65.5t-66.5 -40.5 q-15 0 -21 17.5t-6 72.5q0 8 5 184.5t5 307.5q0 192 -22 493q-2 23 -15 38.5t-25.5 24t-12.5 15.5z" />
<glyph unicode="l" horiz-adv-x="1062" d="M236 1161q0 21 64 70t87 49t47.5 -14t24.5 -35q0 -11 -8.5 -45.5t-8.5 -55.5q0 -63 -6 -183t-6 -175q0 -36 2 -107t2 -118q0 -101 -12 -254t-12 -162q0 -16 24 -16q6 0 22 4t25 4l371 14q20 1 57.5 19t51.5 18q34 0 34 -27q0 -21 -21 -84t-42 -63t-80 20q-27 9 -223 9 q-204 0 -234 -15q-28 -14 -63 -14q-22 0 -50 44t-28 60q0 9 20 38.5t21 60.5q4 88 4 479q0 112 -6.5 199t-15.5 134t-18.5 77.5t-16 46t-6.5 22.5z" />
<glyph unicode="m" horiz-adv-x="2390" d="M154 43q0 28 45 78q66 72 136.5 267t70.5 300q0 77 -22.5 148t-55 120.5t-65 89.5t-55 71t-22.5 50q0 17 40 26t77 9q30 0 87.5 -68t211.5 -292q74 -109 191 -238t253 -234.5t218 -105.5q67 0 154 33.5t179 98t175 148t149 195t94 228.5q22 92 47 92q22 0 57 -14.5 t35 -36.5q0 -12 -14 -84.5t-27.5 -196t-13.5 -256.5q0 -67 17.5 -133.5t39 -108.5t39 -81t17.5 -58q0 -16 -47.5 -40.5t-73.5 -24.5q-44 0 -57 122q-10 90 -30.5 229.5t-31.5 192.5l-127 -114q-146 -132 -304 -208.5t-298 -76.5q-115 0 -226.5 62t-268.5 229l-207 219 q-36 -126 -83 -275.5t-75.5 -242.5t-38.5 -139q-8 -36 -23 -45t-73 -9q-27 0 -60.5 28t-33.5 46z" />
<glyph unicode="n" horiz-adv-x="1896" d="M106 1122q0 20 28.5 42t64.5 22q9 0 20 -7t52 -43t116 -108q323 -311 563 -488t559 -343q17 169 17 276q0 143 -13 477q-1 38 -11.5 66t-21.5 41t-20.5 28t-9.5 29q0 31 51 48.5t98 17.5q68 0 68 -41q0 -3 -8.5 -58.5t-17.5 -221.5t-9 -437q0 -108 11.5 -213.5 t11.5 -130.5q0 -47 -49 -78t-86 -31q-14 0 -27 28.5t-36 68t-58 59.5q-468 269 -627.5 375t-279.5 219q0 -3 -19.5 -263.5t-42.5 -377.5q-9 -44 -31.5 -69t-48.5 -25q-25 0 -55.5 18t-30.5 41q0 15 17 64t37.5 110t37.5 173.5t17 238.5q0 95 -26 163.5t-85 131.5 q-102 111 -129 145t-27 53z" />
<glyph unicode="o" horiz-adv-x="1290" d="M180 559q0 83 18 164t59 158.5t100 136.5t149 95t199 36q84 0 156 -32.5t128.5 -97t88.5 -171t32 -244.5q0 -131 -42 -239t-112.5 -177t-159 -106t-184.5 -37q-79 0 -155 33.5t-138.5 95.5t-100.5 162t-38 223zM328 592q0 -28 6.5 -65.5t20.5 -86t40.5 -94t62 -84.5 t89.5 -62.5t119 -23.5q38 0 76.5 10t81.5 38t75.5 71t54 117t21.5 168q0 121 -25.5 211t-70 140.5t-98 74.5t-115.5 24q-104 0 -182 -61t-117 -159t-39 -218z" />
<glyph unicode="p" horiz-adv-x="1062" d="M207 1087q0 34 58.5 69.5t126.5 56t108 20.5q131 0 252 -51q53 -23 101 -97t48 -129q0 -143 -35 -196q-44 -68 -123.5 -144.5t-113.5 -76.5q-31 0 -84 26.5t-53 40.5q0 21 49 31q95 20 154 85t59 146q0 35 -8 75.5t-25 83.5t-50.5 71t-78.5 28q-83 0 -162 -49 q-22 -207 -22 -379v-540q0 -115 -26.5 -168t-88.5 -53q-35 0 -35 30q0 7 6 24t11.5 54.5t5.5 95.5v305q0 405 -21 566q-4 30 -22 39q-31 15 -31 36z" />
<glyph unicode="q" horiz-adv-x="1402" d="M180 616q0 104 44.5 212.5t118 195t176 142t210.5 55.5q109 0 194.5 -33t134 -80.5t80 -107t42 -105.5t10.5 -84q0 -73 -18 -143.5t-47.5 -125.5t-65.5 -104t-72 -83.5t-67.5 -60t-52 -38t-25.5 -12.5q-23 0 -58.5 8.5t-35.5 28.5q0 6 6 10.5t37 25.5q72 48 122 104.5 t75.5 117t35.5 115t10 116.5q0 141 -75 236.5t-209 95.5q-45 0 -100 -16.5t-114.5 -52.5t-108.5 -86t-80.5 -124t-31.5 -159q0 -33 9.5 -73t36 -96.5t68 -114.5t112.5 -124.5t161 -128t222 -125t288 -115.5q129 -43 190 -54t154 -11q129 0 191 20q18 6 29 6q15 0 22.5 -9 t7.5 -19q0 -8 -10.5 -24t-26.5 -25l-98 -62q-30 -18 -55 -18q-134 0 -480 112t-520 215q-137 82 -238.5 191.5t-149.5 214t-48 192.5z" />
<glyph unicode="r" horiz-adv-x="1138" d="M231 1075q0 34 27 53q92 65 199.5 100.5t163.5 35.5q121 0 186 -77t65 -200q0 -120 -49.5 -199t-113.5 -108l-146 -66v-4q48 -7 68 -32q63 -78 133.5 -154t124.5 -127t99.5 -92.5t70 -65t24.5 -30.5q0 -28 -26 -54l-7 -7l-6 -6l-5.5 -5.5l-5 -5t-4 -3.5t-4 -3t-3.5 -2 t-4 -1.5l-4 -1t-4 -0.5h-33q-33 0 -59 31q-12 14 -40 48t-63.5 75.5t-77.5 87.5l-221 240q-32 37 -90 37q-4 -86 -4 -162v-334q0 -43 -39 -43q-35 0 -92.5 24t-57.5 50q0 16 39 65q13 18 20 180t7 275q0 289 -12 407q-1 13 -10.5 20.5t-19.5 10.5t-18 13.5t-8 29.5zM426 674 q6 -17 37 -17q10 0 49 21t88 56.5t87 96t38 127.5q0 96 -38.5 141.5t-100.5 45.5q-37 0 -75 -17.5t-60 -48.5q-10 -38 -17.5 -133t-7.5 -184v-88z" />
<glyph unicode="s" horiz-adv-x="796" d="M166 84q0 21 9 31t20 10q15 0 67.5 -19.5t95.5 -19.5q53 0 88 37t35 84q0 55 -40.5 153.5t-89.5 189.5t-89.5 189t-40.5 152q0 28 17.5 75.5t50 101.5t72.5 102t92 80t102 32q45 0 104.5 -15.5t59.5 -43.5q0 -41 -16 -54t-72 -14q-128 -3 -191 -60.5t-63 -146.5 q0 -47 35 -134.5t76.5 -173t76.5 -193t35 -189.5q0 -17 -6 -49.5t-23.5 -79.5t-43 -87.5t-70 -69.5t-99.5 -29q-40 0 -105.5 23t-72.5 44q-14 44 -14 74z" />
<glyph unicode="t" horiz-adv-x="1024" d="M35 1100q0 15 22 38t39 23q8 0 126.5 -8t254.5 -8q75 0 225.5 8t225.5 8q30 0 30 -28q0 -17 -32.5 -50t-59.5 -36q-75 -7 -297 -13q-41 -240 -41 -753q0 -35 8.5 -65t27 -57.5t55.5 -43t88 -15.5q9 0 35 3t32 3q21 0 21 -43q0 -31 -19 -47q-22 -19 -62 -33t-71 -14 q-113 0 -188.5 79t-75.5 161q0 16 7.5 71.5t15.5 156.5t8 229q0 211 -15 360h-233q-12 0 -38 -2t-40 -2q-23 0 -36 24t-13 54z" />
<glyph unicode="u" horiz-adv-x="1857" d="M43 1075q0 40 47 60q20 9 67.5 19.5t69.5 10.5q39 0 39 -51q0 -15 -5 -72t-5 -94q0 -55 47.5 -148.5t128.5 -195.5t175.5 -193t201 -150.5t192.5 -59.5q100 0 189 46.5t151 121t111 163t77.5 178t43 159.5t14.5 114v42.5t1.5 34t4.5 29.5t8.5 19.5t14 14t20.5 3.5 q25 0 109 -41q20 -10 27.5 -20.5t7.5 -32.5q0 -12 -14 -57.5t-40 -117t-67.5 -157t-92.5 -175.5t-120 -173.5t-145 -149.5t-172 -105.5t-197 -39.5q-78 0 -178 58.5t-196.5 150.5t-191 207.5t-165.5 227.5t-114.5 212.5t-43.5 161.5z" />
<glyph unicode="v" horiz-adv-x="1744" d="M4 1112q0 30 72 75.5t98 45.5q35 0 35 -43q0 -46 110 -186.5t246 -289t278 -306.5t185 -218q51 40 130.5 138.5t160.5 222.5t144 266.5t73 249.5q3 32 11.5 42.5t27.5 10.5q33 0 96.5 -32t63.5 -56q0 -43 -165 -298.5t-345 -494.5t-217 -239q-16 0 -45 18.5t-29 32.5 q0 19 -17.5 45t-80.5 103q-175 216 -329 387t-241 255t-151 143t-87.5 84t-23.5 44z" />
<glyph unicode="w" horiz-adv-x="1933" d="M31 1126q0 22 64.5 64.5t90.5 42.5q37 0 37 -35q0 -87 149 -460.5t230 -524.5q10 15 74.5 112t116.5 175.5t107 171t73 137.5q14 36 25 47.5t26 11.5q17 0 46.5 -11t29.5 -23q0 -42 63.5 -206t182.5 -395q28 69 133 272t190.5 374t85.5 204q0 35 9.5 48.5t29.5 13.5 q22 0 75.5 -35.5t53.5 -50.5q0 -16 -15 -41t-67 -104.5t-108 -176.5q-127 -219 -230.5 -429t-111.5 -261q-3 -22 -12 -34.5t-21 -12.5q-100 0 -113 49q-38 137 -107.5 310t-131.5 231q-115 -138 -237 -315t-130 -238q-3 -20 -48 -36.5t-75 -16.5q-21 0 -30 11.5t-9 43.5 q0 170 -358 919q-19 39 -42.5 76.5t-34.5 57t-11 34.5z" />
<glyph unicode="x" horiz-adv-x="1290" d="M-197 1165q0 27 61.5 47.5t112.5 20.5q48 0 62 -13.5t14 -56.5q0 -50 41.5 -104.5t174.5 -170.5t427 -349q128 141 251.5 307.5t123.5 216.5q0 47 215 47q45 0 45 -31q0 -11 -17 -31t-44 -40q-23 -16 -223 -225.5t-279 -301.5l139 -106q147 -113 266 -183.5t148 -74.5 q34 -5 42.5 -8t8.5 -13q0 -30 -51 -71t-78 -41q-31 0 -227 149l-332 254q-72 -81 -134 -158t-94 -120.5t-58.5 -78t-42.5 -48t-31 -13.5q-26 0 -82 22.5t-56 45.5q0 22 37 41q118 62 387 366q-219 164 -376 290t-238.5 197.5t-127 123t-55.5 72t-10 38.5z" />
<glyph unicode="y" horiz-adv-x="1744" d="M2 1135q0 21 49 59.5t94 38.5q10 0 16.5 -10t11 -23.5t14.5 -32t24 -32.5q187 -178 413.5 -368.5t348.5 -297t157 -170.5q43 90 200 346.5t196 323.5q41 72 41 129q0 6 -2 17.5t-2 17.5q0 24 26 24q31 0 88.5 -22.5t57.5 -42.5q0 -30 -86 -168.5t-221.5 -341.5 t-180.5 -275q-30 -48 -43.5 -113t-13.5 -198q0 -16 2 -52.5t2 -56.5q0 -26 -66 -42.5t-98 -16.5q-16 0 -16 22t12 50t24.5 71.5t12.5 104.5q0 46 -8 78t-45 85.5t-97.5 111.5t-182.5 161t-281.5 228t-411.5 319q-35 26 -35 76z" />
<glyph unicode="z" horiz-adv-x="1402" d="M59 205q0 50 18 80.5t70 74.5q94 79 347.5 329t330.5 341q-102 4 -294.5 18.5t-239.5 16.5q-24 1 -36.5 18.5t-12.5 40.5q0 35 23.5 72t53.5 37q21 0 77 -27.5t85 -29.5q359 -27 439 -27q11 0 33.5 9t35.5 9q11 0 25 -30t14 -58q0 -11 -26.5 -41.5t-116.5 -122.5 l-592 -602q-38 -38 -47.5 -50t-9.5 -23q0 -37 169 -105t391 -122t353 -54q87 0 131 31q40 28 66 28q12 0 27.5 -8.5t15.5 -19.5q0 -17 -61 -89.5t-87 -72.5q-21 0 -142 18t-296.5 53t-342 79t-284 105t-117.5 122z" />
<glyph unicode="{" d="M154 539v82q77 0 114 68t37 171v270q0 93 52.5 148t138.5 55h112v-82h-98q-42 0 -64 -44.5t-22 -110.5v-269q1 -59 -17.5 -107t-46 -75.5t-50 -42.5t-38.5 -20v-4q16 -5 38.5 -20t50 -43t46 -77.5t17.5 -109.5v-262q0 -65 22 -110.5t64 -45.5h98v-82h-112 q-86 0 -138.5 54t-52.5 147v268q0 67 -14.5 119t-49.5 87t-87 36z" />
<glyph unicode="|" horiz-adv-x="518" d="M207 -453v1811h102v-1811h-102z" />
<glyph unicode="}" d="M74 -90h98q42 0 64 45t22 111v268q-1 59 17.5 107t46 76t50 43t38.5 20v4q-16 5 -38.5 20t-50 43t-46 77.5t-17.5 109.5v262q0 65 -22 110t-64 45h-98v82h112q86 0 138.5 -53.5t52.5 -146.5v-269q0 -67 14.5 -119t49.5 -86.5t87 -35.5v-82q-77 0 -114 -68.5t-37 -171.5 v-270q0 -93 -52.5 -148t-138.5 -55h-112v82z" />
<glyph unicode="~" horiz-adv-x="1161" d="M96 381q48 80 121.5 125t159.5 45q34 0 69.5 -9t55.5 -18t56 -27.5t46 -23.5q6 -3 29 -15t29.5 -14.5t25 -11t28 -11t25.5 -6.5t30.5 -5.5t31.5 -1.5q64 0 111.5 32t93.5 105l53 -53q-104 -166 -260 -166q-42 0 -84.5 12t-67.5 24t-92 46q-120 61 -195 61 q-64 0 -111.5 -36.5t-98.5 -102.5z" />
<glyph unicode="&#xa1;" horiz-adv-x="645" d="M203 930q0 34 35.5 74t78.5 40q32 0 71.5 -31.5t39.5 -47.5q0 -37 -46.5 -85.5t-64.5 -48.5q-28 0 -71 35.5t-43 63.5zM229 -96q0 23 10.5 89t21.5 210t11 356q0 9 -1 35.5t-1 42.5q0 25 25 25q19 0 57.5 -32.5t38.5 -47.5q0 -58 4 -176t4 -177q0 -25 -1 -74t-1 -73 q0 -49 22.5 -102.5t22.5 -59.5q0 -9 -11.5 -23t-24.5 -22l-58 -37q-20 -10 -31 -10q-13 0 -50.5 29.5t-37.5 46.5z" />
<glyph unicode="&#xa2;" horiz-adv-x="1024" d="M145 479q0 86 61.5 179.5t135.5 156.5q37 31 123.5 57.5t152.5 26.5q11 53 29 118.5t27 82.5q8 17 44 37t50 20q25 0 25 -24q0 -6 -5.5 -16.5t-16.5 -33.5t-21 -51l-43 -125q100 -4 136 -14.5t36 -32.5t-26 -72.5t-40 -50.5q-5 0 -23 10t-49.5 24.5t-64.5 23.5 q-25 -78 -55 -197l-43 -180l-66 -307q66 -17 94 -17q54 0 140 41t112 41q21 0 21 -14q0 -16 -17 -50t-33 -42q-42 -24 -143 -47t-143 -23q-33 0 -60 6q-26 -108 -39 -207q-3 -24 -11.5 -40.5t-18.5 -16.5q-8 0 -22.5 28t-14.5 46q0 13 6.5 37.5t19.5 71t23 87.5 q-121 64 -180 124.5t-80 135.5t-21 207zM293 344q0 -64 42 -129t116 -88l145 678q-44 -2 -94 -21.5t-76 -50.5q-57 -65 -95 -187.5t-38 -201.5z" />
<glyph unicode="&#xa3;" horiz-adv-x="1099" d="M125 94q0 10 22 25.5t93 54.5q18 10 24.5 20.5t11.5 32.5q53 237 95 363q-106 0 -148 -29q-13 -10 -33 -10q-16 0 -32.5 33.5t-16.5 58.5q0 24 30 33.5t108 9.5q20 0 59 -1t57 -1q60 237 88.5 319.5t59.5 106.5q112 85 152.5 104t101.5 19q40 0 92.5 -23t86.5 -48t34 -36 q0 -15 -7.5 -29t-17.5 -14q-5 0 -65 15.5t-134 15.5q-47 0 -71 -16.5t-80 -85.5q-17 -20 -64 -170l-49 -160h271q21 0 29.5 -6.5t8.5 -24.5q0 -25 -38.5 -44t-79.5 -19l-215 -4l-74 -213q-33 -95 -33 -121q0 -34 7 -57t17.5 -33t19 -13.5t16.5 -3.5q37 0 75.5 16.5 t55.5 16.5q47 0 164.5 -26.5t130.5 -26.5q29 0 55.5 11t30.5 11q10 0 20 -15t10 -26q0 -17 -74 -60.5t-116 -43.5q-63 0 -167 37t-153 37q-22 0 -49.5 -11.5t-54 -25.5t-76.5 -25.5t-110 -11.5q-21 0 -44.5 38t-23.5 56z" />
<glyph unicode="&#xa4;" horiz-adv-x="1257" d="M205 207l131 129q-96 109 -96 256q0 69 26 138.5t70 111.5l-131 129l65 63l127 -143q46 41 109 61.5t117 20.5q144 0 233 -80l127 141l64 -63l-132 -127q44 -42 70.5 -112.5t26.5 -139.5q0 -65 -29.5 -137.5t-71.5 -116.5l136 -131l-68 -66l-129 146q-95 -78 -227 -78 q-140 0 -226 72l-127 -140zM346 592q0 -132 80.5 -215.5t198.5 -83.5q117 0 198.5 84t81.5 215q0 129 -81.5 212t-198.5 83h-2q-115 0 -196 -83t-81 -212z" />
<glyph unicode="&#xa5;" horiz-adv-x="1062" d="M63 1163q0 11 19 19l84 39q24 12 47 12q15 0 27 -21q154 -268 284 -548q180 283 219 366q22 46 37.5 95t24 68.5t22.5 23.5l144 38q18 9 39 9q43 0 43 -33q0 -28 -29 -57q-47 -47 -174.5 -212.5t-206.5 -277.5q12 0 42 -1t50 -1q19 0 55 1t44 1q21 0 32 -9t11 -22 q0 -29 -70 -47t-156 -18q-51 0 -69 2q0 -20 1 -55t1 -52q126 0 204 -2q39 -1 58.5 -4.5t25 -8t5.5 -13.5q0 -17 -62 -54q-21 -12 -61 -12q-121 0 -168 -2q0 -166 -4 -260q-3 -93 -15 -129.5t-49 -36.5q-23 0 -39 20t-18 48q-10 212 -10 362q-23 2 -68 2q-63 0 -96 -20 q-25 -15 -47 -15q-19 0 -32 35.5t-13 52.5q0 10 19 20.5t38 12.5q41 4 199 4q-1 18 -2.5 54.5t-2.5 52.5q-36 4 -57 4q-41 0 -93.5 -20.5t-64.5 -20.5q-17 0 -29 30.5t-12 59.5q0 22 28 32.5t112 10.5q15 0 34.5 -1t26.5 -1q-50 57 -311 449q-17 25 -17 30z" />
<glyph unicode="&#xa6;" horiz-adv-x="518" d="M207 315h100v-630h-100v630zM207 588v633h100v-633h-100z" />
<glyph unicode="&#xa7;" horiz-adv-x="909" d="M162 598q0 19 7 37.5t36 81.5q10 23 33 39q48 35 102 47q-80 48 -113.5 92t-33.5 104q0 115 229 218q37 16 94 16q33 0 89.5 -12t96.5 -35q11 -6 15 -17t4 -39q0 -12 -22 -30.5t-37 -18.5q-21 0 -48 19q-36 26 -71 26q-56 0 -95.5 -14t-56.5 -35t-24 -38t-7 -31 q0 -44 29 -78q45 -53 105 -104t190 -148q90 -67 90 -152q0 -43 -27 -89.5t-62 -79.5t-66 -54.5t-41 -21.5q-48 0 -48 16q0 8 24 31.5t48.5 57t24.5 65.5q0 69 -47 128t-213 201q-23 -24 -40.5 -64t-17.5 -71q0 -54 95 -203.5t161 -222.5q107 -121 107 -209q0 -33 -21 -73.5 t-57 -71.5q-38 -33 -138.5 -60.5t-156.5 -27.5q-74 0 -91.5 15.5t-17.5 80.5q0 37 10.5 53.5t35.5 16.5q13 0 25 -9.5t20.5 -20.5t27.5 -20.5t45 -9.5q71 0 120.5 34t49.5 85q0 73 -63 154l-246 319q-30 38 -41.5 64t-11.5 59z" />
<glyph unicode="&#xa8;" horiz-adv-x="569" d="M-12 1364q0 34 32 84.5t62 50.5q21 0 59.5 -40.5t38.5 -63.5q0 -18 -15.5 -37t-66.5 -53q-17 -11 -39 -11q-14 0 -42.5 27.5t-28.5 42.5zM377 1411q0 14 45 45t61 31q19 0 59 -41t40 -60q0 -16 -24 -54t-38 -38q-53 0 -98 42t-45 75z" />
<glyph unicode="&#xa9;" horiz-adv-x="1638" d="M172 616q0 132 51 252t137.5 206.5t206.5 138t252 51.5t252 -51.5t206.5 -138t137.5 -206.5t51 -252q0 -176 -86.5 -325t-235.5 -235.5t-325 -86.5t-325 86.5t-235.5 235.5t-86.5 325zM291 616q0 -235 150 -387.5t378 -152.5t378.5 152.5t150.5 387.5t-150.5 388 t-378.5 153t-378 -153t-150 -388zM451 616q0 178 103 291t280 113q129 0 220 -71t109 -197h-106q-16 73 -76.5 123.5t-144.5 50.5q-122 0 -200.5 -93t-78.5 -215q0 -121 81.5 -217t201.5 -96q83 0 143 53.5t74 126.5h106q-28 -125 -115 -199.5t-208 -74.5q-174 0 -281.5 115 t-107.5 290z" />
<glyph unicode="&#xaa;" horiz-adv-x="911" d="M37 403q0 29 8 31q28 9 46 24.5t28 47.5q2 7 66 131.5t122 257.5t58 186q0 5 -8.5 29t-8.5 29q0 14 29.5 29.5t58.5 15.5q15 0 34.5 -16.5t29.5 -39.5q10 -21 79.5 -181t125.5 -265q33 -62 61.5 -111t45.5 -73.5t29 -41t16.5 -22.5t4.5 -10q0 -25 -37 -25q-38 0 -106 17 q-10 3 -19 16t-12 25q-9 29 -41.5 99.5t-42.5 76.5q-40 22 -225 22q-60 0 -79 -7.5t-28 -35.5q-6 -19 -40 -92t-37 -90q-7 -34 -23 -37q-55 -10 -115 -10q-20 0 -20 20zM328 735q0 -10 22 -10h221l-96 207q-5 10 -9.5 21.5t-7 18t-5 12.5t-5.5 8.5t-6 2.5q-4 0 -8 -9 t-8.5 -25.5t-7.5 -22.5l-64 -141q-26 -56 -26 -62z" />
<glyph unicode="&#xab;" horiz-adv-x="985" d="M98 598q0 25 46 86t92 107q65 65 120.5 109t73.5 44q15 0 27 -11t12 -26q0 -18 -12 -33l-144 -202q-22 -32 -22 -64q0 -107 51 -141q86 -59 142.5 -112t56.5 -68q0 -13 -25 -23t-43 -10q-81 0 -291 203q-84 81 -84 141zM504 623q0 42 70.5 119.5t143.5 135.5t87 58 q18 0 50 -11t32 -22q0 -4 -3.5 -8.5t-11 -11.5t-10.5 -11l-149 -165q-35 -40 -48.5 -66t-13.5 -57q0 -18 44.5 -79.5t115.5 -129.5q59 -56 59 -74q0 -11 -18 -25t-33 -14q-33 0 -149 95t-140 147q-26 58 -26 119z" />
<glyph unicode="&#xac;" horiz-adv-x="1161" d="M102 606v84h955v-540h-90v456h-865z" />
<glyph unicode="&#xad;" d="M129 526q0 22 30.5 70.5t61.5 48.5q7 0 25.5 -7.5t56 -14.5t90.5 -7q47 0 112 7.5t75 7.5q16 0 24 -23.5t8 -40.5q0 -10 -25.5 -33.5t-41.5 -23.5q-8 0 -122 -6t-226 -6q-68 0 -68 28z" />
<glyph unicode="&#xae;" horiz-adv-x="1638" d="M172 616q0 132 51 252t137.5 206.5t206.5 138t252 51.5t252 -51.5t206.5 -138t137.5 -206.5t51 -252q0 -176 -86.5 -325t-235.5 -235.5t-325 -86.5t-325 86.5t-235.5 235.5t-86.5 325zM291 616q0 -235 150 -387.5t378 -152.5t378.5 152.5t150.5 387.5t-150.5 388 t-378.5 153t-378 -153t-150 -388zM573 236v761h291q254 0 254 -213q0 -103 -53 -156t-135 -65l215 -327h-127l-207 325h-131v-325h-107zM680 655h123q38 0 62.5 1.5t55.5 9t48.5 21t30 39t12.5 62.5q0 115 -170 115h-162v-248z" />
<glyph unicode="&#xaf;" horiz-adv-x="569" d="M78 1264q0 14 5.5 20.5t31.5 28.5l184 153l82 64l14 2q18 0 48 -19t30 -32q0 -12 -7.5 -24t-26 -27t-25 -20t-29.5 -21l-266 -144q-9 -4 -15 -4h-12q-1 0 -5.5 4.5t-6.5 5.5z" />
<glyph unicode="&#xb0;" horiz-adv-x="696" d="M74 901q0 114 76.5 187t183.5 73h2q111 0 185.5 -74t74.5 -186q0 -118 -74.5 -187t-187.5 -69q-109 0 -184.5 69.5t-75.5 186.5zM160 901q0 -83 50 -138.5t128 -55.5q81 0 128.5 52.5t47.5 139.5q0 84 -46.5 140.5t-133.5 56.5h-2q-76 0 -124 -53t-48 -142z" />
<glyph unicode="&#xb1;" horiz-adv-x="1161" d="M100 -12v82h955v-82h-955zM102 567v84h433v375h90v-375h432v-84h-432v-401h-90v401h-433z" />
<glyph unicode="&#xb2;" horiz-adv-x="690" d="M68 563v78q0 12 19 29.5t99 81.5q254 203 254 325q0 41 -34.5 73t-98.5 32q-56 0 -87 -14t-48 -48q-7 -14 -55 -14q-22 0 -32.5 31.5t-10.5 60.5q0 28 83.5 47t149.5 19q58 0 91.5 -8.5t82.5 -41.5q44 -30 61 -59.5t17 -81.5q0 -43 -24.5 -98.5t-77.5 -100.5l-262 -225 q-9 -5 -9 -8q0 -4 11 -4q52 0 156.5 2t156.5 2q41 1 68 7.5t38.5 13t16.5 6.5q18 0 18 -37q0 -17 -11 -55.5t-22 -38.5q-5 0 -40 10q-24 8 -191 8q-159 0 -194.5 -1.5t-55.5 -8.5q-20 -8 -28 -8q-10 0 -25.5 9t-15.5 17z" />
<glyph unicode="&#xb3;" horiz-adv-x="616" d="M41 541q0 9 10 13t45 7q134 11 211.5 59.5t77.5 94.5q0 28 -74 86l-69 53q-23 20 -23 37q0 5 2 9.5t8.5 12t13.5 14t22.5 22.5t29.5 30q94 96 94 117q0 11 -94.5 30t-118.5 19q-22 0 -43 -6t-31 -6q-32 0 -32 24q0 36 14 71.5t39 35.5q46 0 143 -20t211 -64 q41 -15 41 -54q0 -22 -18 -43l-113 -127q-25 -31 -25 -49q0 -23 39 -51l76 -57q35 -28 35 -68q0 -45 -26 -81t-89 -81q-34 -25 -121.5 -64.5t-125.5 -39.5t-54 12l-41 31q-14 11 -14 33z" />
<glyph unicode="&#xb4;" horiz-adv-x="569" d="M78 1268q0 18 20 32l236 195q42 37 61 37q16 0 47 -19t31 -36t-28.5 -45.5t-90.5 -61.5q-4 -2 -70.5 -38t-120 -63.5t-59.5 -27.5q-26 0 -26 27z" />
<glyph unicode="&#xb5;" horiz-adv-x="1441" d="M223 711q0 80 60 80q28 0 51 -17l94 -69q10 -10 10 -27q0 -10 -16 -35.5t-32.5 -77t-16.5 -125.5v-141q0 -50 21 -89t51 -61t66 -36t61 -18.5t42 -4.5q47 0 105 33t80 78q19 39 24.5 118t5.5 218q0 46 -14 102t-14 74q0 45 78 45q98 0 98 -72q0 -9 -4 -43.5t-9 -84 t-8 -85.5q-20 -265 -51 -319q-22 -38 -66 -83.5t-83 -66.5q-41 -20 -127 -20q-87 0 -140.5 26t-107.5 90l-4 -4q0 -12 1 -34.5t1 -36.5q0 -178 -16.5 -242t-61.5 -64q-63 0 -63 144v278q0 116 -7.5 331t-7.5 239z" />
<glyph unicode="&#xb6;" horiz-adv-x="1052" d="M90 793q0 389 569 389q165 0 232 -15v-1253h-103v1182h-151v-1182h-100v537h-27q-178 0 -299.5 89t-120.5 253z" />
<glyph unicode="&#xb7;" horiz-adv-x="569" d="M172 598q0 30 5.5 42t23.5 24q67 47 100 47q12 0 54 -42t42 -61q0 -15 -22 -43q-68 -84 -94 -84q-31 0 -70 44.5t-39 72.5z" />
<glyph unicode="&#xb8;" horiz-adv-x="569" d="M246 -348q0 16 26 22q49 10 94.5 42t45.5 55q0 43 -21 53l-74 35q-22 11 -22 35q0 34 55 124h66q-39 -72 -39 -96q0 -17 98 -49q36 -12 50 -32t14 -56q0 -42 -29.5 -75.5t-72.5 -51.5t-84 -27.5t-72 -9.5q-13 0 -24 9t-11 22z" />
<glyph unicode="&#xb9;" horiz-adv-x="442" d="M100 1188q0 10 13 16q83 41 105.5 50.5t37.5 9.5q8 0 25.5 -6t17.5 -13q0 -3 -5 -27.5t-10 -95.5t-5 -188q0 -177 8 -309q0 -20 8 -31t16 -17t8 -12q0 -26 -86 -26q-35 0 -53 2.5t-23 6t-5 11.5q0 9 20 31q5 5 7 17.5t3.5 58t1.5 135.5q0 145 -6 220t-16.5 100t-30.5 34 q-31 14 -31 33z" />
<glyph unicode="&#xba;" horiz-adv-x="774" d="M104 795q0 72 17 137.5t53 123.5t100.5 93t149.5 35q110 0 178 -90t68 -269q0 -177 -87 -274.5t-214 -97.5q-110 0 -187.5 88.5t-77.5 253.5zM199 817q0 -22 5 -52.5t19 -69.5t35.5 -71t59 -54.5t83.5 -22.5q23 0 46.5 6.5t49.5 24.5t45.5 46t32.5 75.5t13 109.5 q0 152 -53.5 222.5t-133.5 70.5q-93 0 -147.5 -82t-54.5 -203z" />
<glyph unicode="&#xbb;" horiz-adv-x="985" d="M98 903q0 11 32 22t50 11q14 0 87 -58t143.5 -135.5t70.5 -119.5q0 -61 -26 -119q-24 -52 -140 -147t-149 -95q-15 0 -33 14t-18 25q0 18 59 74q71 68 115.5 129.5t44.5 79.5q0 31 -13.5 57t-48.5 66l-149 165q-3 4 -10.5 11t-11 11.5t-3.5 8.5zM444 287q0 15 56.5 68 t142.5 112q51 34 51 141q0 32 -22 64l-144 202q-12 15 -12 33q0 15 12 26t27 11q18 0 74.5 -44.5t120.5 -108.5q46 -46 91.5 -107t45.5 -86q0 -60 -84 -141q-210 -203 -291 -203q-18 0 -43 10t-25 23z" />
<glyph unicode="&#xbc;" horiz-adv-x="1603" d="M96 1077l193 72h98v-682h-115v592h-4l-147 -55zM244 -20l800 1175h95l-801 -1175h-94zM797 176v53l436 461h108v-440h146v-74h-146v-176h-108v176h-436zM915 250h3h315v244q0 50 6 96h-4q-40 -46 -72 -78z" />
<glyph unicode="&#xbd;" horiz-adv-x="1699" d="M96 1077l193 72h98v-682h-115v592h-4l-147 -55zM244 -20l800 1175h95l-803 -1175h-92zM967 0v70l157 110q167 122 228 182t61 115q0 21 -7.5 41.5t-25 42t-55 34.5t-90.5 13q-57 0 -116 -19t-95 -44l-39 67q129 78 275 78q129 0 198.5 -57t69.5 -139q0 -37 -14 -71.5 t-35 -62.5t-61.5 -62.5t-75.5 -61t-94 -68.5q-25 -18 -38 -27l-88 -59v-4h420v-78h-575z" />
<glyph unicode="&#xbe;" horiz-adv-x="1789" d="M80 510l31 76q31 -19 95.5 -35t131.5 -16q109 0 172 37.5t63 93.5q0 60 -75 93.5t-203 33.5h-74v69h76q103 0 172.5 34.5t69.5 84.5q0 42 -44.5 71t-136.5 29q-56 0 -112 -17t-90 -36l-33 72q108 59 258 59q140 0 208 -49t68 -117q0 -54 -47 -97t-127 -65v-2 q96 -10 153.5 -58t57.5 -112q0 -83 -92.5 -141.5t-257.5 -58.5q-82 0 -153.5 14.5t-110.5 36.5zM430 -20l801 1175h94l-801 -1175h-94zM985 176v53l434 461h109v-440h145v-74h-145v-176h-105v176h-438zM1104 250h2h317v244q0 34 4 96h-4q-13 -14 -36.5 -40.5t-34.5 -37.5z " />
<glyph unicode="&#xbf;" horiz-adv-x="985" d="M150 213q0 63 35.5 130.5t86.5 102.5q188 133 244 183q21 18 55 18q31 0 31 -53q0 -44 -22 -51q-22 -6 -98.5 -61t-121.5 -99q-36 -35 -60 -98t-24 -111q0 -60 35 -113q31 -50 68 -84q63 -55 135 -55q44 0 85.5 23t55.5 71q11 34 36.5 55t48.5 27t46 6q19 0 28 -32.5 t9 -67.5q0 -32 -38.5 -66t-88 -57t-93 -38t-56.5 -15q-77 0 -169.5 24t-135.5 62q-35 31 -57 90.5t-28.5 109.5t-6.5 99zM412 981q0 63 82 63q8 0 28.5 -4.5t47.5 -13t47 -26t20 -39.5t-36.5 -84t-57.5 -62q-17 0 -52.5 21t-48.5 34q-20 20 -25 38.5t-5 72.5z" />
<glyph unicode="&#xc0;" horiz-adv-x="1366" d="M23 33q0 28 5 38t19 13q84 20 115 106q3 9 109 201t202 397.5t96 286.5q0 7 -13 43t-13 43q0 20 43 46t67 26q13 0 38.5 -26t41.5 -60q18 -37 87 -186t127 -264t128 -238q55 -96 102.5 -171t75.5 -113t48 -63t28 -34.5t8 -14.5q0 -36 -47 -36q-23 0 -81 9t-79 15 q-32 8 -51 74q-12 42 -67.5 153t-73.5 119q-36 19 -155.5 27t-219.5 8q-102 0 -128 -9.5t-44 -55.5q-14 -38 -72 -153t-63 -140q-10 -57 -39 -60q-21 -2 -64 -5.5t-74 -6t-36 -2.5q-9 0 -14.5 11t-5.5 22zM479 541q0 -15 35 -15h371l-162 318q-13 23 -23.5 50.5t-16 37.5 t-13.5 10q-7 0 -14 -14t-14.5 -39t-12.5 -35l-107 -217q-43 -85 -43 -96zM537 1460q0 19 24 45.5t41 26.5q56 0 66 -31q28 -86 82 -143l40 -45q41 -45 41 -51q0 -8 -23 -14.5t-34 -6.5q-24 0 -81.5 42.5t-106.5 96t-49 80.5z" />
<glyph unicode="&#xc1;" horiz-adv-x="1366" d="M23 33q0 28 5 38t19 13q84 20 115 106q3 9 109 201t202 397.5t96 286.5q0 7 -13 43t-13 43q0 20 43 46t67 26q13 0 38.5 -26t41.5 -60q18 -37 87 -186t127 -264t128 -238q55 -96 102.5 -171t75.5 -113t48 -63t28 -34.5t8 -14.5q0 -36 -47 -36q-23 0 -81 9t-79 15 q-32 8 -51 74q-12 42 -67.5 153t-73.5 119q-36 19 -155.5 27t-219.5 8q-102 0 -128 -9.5t-44 -55.5q-14 -38 -72 -153t-63 -140q-10 -57 -39 -60q-21 -2 -64 -5.5t-74 -6t-36 -2.5q-9 0 -14.5 11t-5.5 22zM453 1268q0 18 20 32l236 195q42 37 61 37q16 0 47 -19t31 -36 t-28.5 -45.5t-90.5 -61.5q-4 -2 -70.5 -38t-120 -63.5t-59.5 -27.5q-26 0 -26 27zM479 541q0 -15 35 -15h371l-162 318q-13 23 -23.5 50.5t-16 37.5t-13.5 10q-7 0 -14 -14t-14.5 -39t-12.5 -35l-107 -217q-43 -85 -43 -96z" />
<glyph unicode="&#xc2;" horiz-adv-x="1366" d="M23 33q0 28 5 38t19 13q84 20 115 106q3 9 109 201t202 397.5t96 286.5q0 7 -13 43t-13 43q0 20 43 46t67 26q13 0 38.5 -26t41.5 -60q18 -37 87 -186t127 -264t128 -238q55 -96 102.5 -171t75.5 -113t48 -63t28 -34.5t8 -14.5q0 -36 -47 -36q-23 0 -81 9t-79 15 q-32 8 -51 74q-12 42 -67.5 153t-73.5 119q-36 19 -155.5 27t-219.5 8q-102 0 -128 -9.5t-44 -55.5q-14 -38 -72 -153t-63 -140q-10 -57 -39 -60q-21 -2 -64 -5.5t-74 -6t-36 -2.5q-9 0 -14.5 11t-5.5 22zM385 1262q0 13 8 39t17 34q161 138 193 158q29 18 52 18 q55 0 110 -31t90 -70.5t57 -73t22 -42.5q0 -10 -12.5 -16t-24.5 -6q-18 0 -111.5 60.5t-115.5 60.5q-25 0 -145 -76t-126 -76t-10 6.5t-4 14.5zM479 541q0 -15 35 -15h371l-162 318q-13 23 -23.5 50.5t-16 37.5t-13.5 10q-7 0 -14 -14t-14.5 -39t-12.5 -35l-107 -217 q-43 -85 -43 -96z" />
<glyph unicode="&#xc3;" horiz-adv-x="1366" d="M23 33q0 28 5 38t19 13q84 20 115 106q3 9 109 201t202 397.5t96 286.5q0 7 -13 43t-13 43q0 20 43 46t67 26q13 0 38.5 -26t41.5 -60q18 -37 87 -186t127 -264t128 -238q55 -96 102.5 -171t75.5 -113t48 -63t28 -34.5t8 -14.5q0 -36 -47 -36q-23 0 -81 9t-79 15 q-32 8 -51 74q-12 42 -67.5 153t-73.5 119q-36 19 -155.5 27t-219.5 8q-102 0 -128 -9.5t-44 -55.5q-14 -38 -72 -153t-63 -140q-10 -57 -39 -60q-21 -2 -64 -5.5t-74 -6t-36 -2.5q-9 0 -14.5 11t-5.5 22zM340 1317q0 29 55.5 88t93.5 59q45 0 107.5 -22.5t113.5 -45 t68 -22.5q18 0 77.5 49.5t64.5 49.5q8 0 16 -15t8 -28q0 -27 -63.5 -94.5t-102.5 -67.5q-51 0 -155.5 45t-130.5 45q-19 0 -71.5 -38t-62.5 -38q-7 0 -12.5 11t-5.5 24zM479 541q0 -15 35 -15h371l-162 318q-13 23 -23.5 50.5t-16 37.5t-13.5 10q-7 0 -14 -14t-14.5 -39 t-12.5 -35l-107 -217q-43 -85 -43 -96z" />
<glyph unicode="&#xc4;" horiz-adv-x="1366" d="M23 33q0 28 5 38t19 13q84 20 115 106q3 9 109 201t202 397.5t96 286.5q0 7 -13 43t-13 43q0 20 43 46t67 26q13 0 38.5 -26t41.5 -60q18 -37 87 -186t127 -264t128 -238q55 -96 102.5 -171t75.5 -113t48 -63t28 -34.5t8 -14.5q0 -36 -47 -36q-23 0 -81 9t-79 15 q-32 8 -51 74q-12 42 -67.5 153t-73.5 119q-36 19 -155.5 27t-219.5 8q-102 0 -128 -9.5t-44 -55.5q-14 -38 -72 -153t-63 -140q-10 -57 -39 -60q-21 -2 -64 -5.5t-74 -6t-36 -2.5q-9 0 -14.5 11t-5.5 22zM362 1364q0 34 32.5 84.5t62.5 50.5q21 0 59.5 -40.5t38.5 -63.5 q0 -18 -15.5 -37t-66.5 -53q-17 -11 -39 -11q-14 0 -43 27.5t-29 42.5zM479 541q0 -15 35 -15h371l-162 318q-13 23 -23.5 50.5t-16 37.5t-13.5 10q-7 0 -14 -14t-14.5 -39t-12.5 -35l-107 -217q-43 -85 -43 -96zM752 1411q0 14 45 45t61 31q19 0 58.5 -41t39.5 -60 q0 -17 -23.5 -54.5t-37.5 -37.5q-53 0 -98 42t-45 75z" />
<glyph unicode="&#xc5;" horiz-adv-x="1366" d="M23 33q0 28 5 38t19 13q84 20 115 106q3 9 109 201t202 397.5t96 286.5q0 7 -13 43t-13 43q0 20 43 46t67 26q13 0 38.5 -26t41.5 -60q18 -37 87 -186t127 -264t128 -238q55 -96 102.5 -171t75.5 -113t48 -63t28 -34.5t8 -14.5q0 -36 -47 -36q-23 0 -81 9t-79 15 q-32 8 -51 74q-12 42 -67.5 153t-73.5 119q-36 19 -155.5 27t-219.5 8q-102 0 -128 -9.5t-44 -55.5q-14 -38 -72 -153t-63 -140q-10 -57 -39 -60q-21 -2 -64 -5.5t-74 -6t-36 -2.5q-9 0 -14.5 11t-5.5 22zM453 1397q0 20 10 47t22 37q14 13 45.5 28.5t49.5 20.5 q36 10 118 10q46 0 82 -12q29 -10 57.5 -42.5t28.5 -64.5q0 -59 -52.5 -107t-149.5 -48q-140 0 -177 32q-34 31 -34 99zM479 541q0 -15 35 -15h371l-162 318q-13 23 -23.5 50.5t-16 37.5t-13.5 10q-7 0 -14 -14t-14.5 -39t-12.5 -35l-107 -217q-43 -85 -43 -96zM547 1374 q0 -39 90 -39q55 0 89 16.5t34 45.5q0 14 -11 37t-28 28q-21 8 -72 8q-30 0 -43 -5.5t-26 -20.5q-33 -35 -33 -70z" />
<glyph unicode="&#xc6;" horiz-adv-x="1478" d="M2 49q0 10 23 39q120 150 223.5 290.5t190.5 273t125 192t106 170.5q49 83 49 143q0 21 14 29q30 16 69.5 31.5t59.5 15.5q33 0 33 -47q42 0 119.5 -1t105.5 -1q45 0 110.5 5t84.5 5q12 0 20 -7t8 -16q0 -11 -29 -50t-46 -42q-91 -14 -357 -14q-6 -100 -6 -391 q292 10 350 10q39 0 39 -33q0 -23 -13.5 -47.5t-33.5 -25.5l-342 -25q0 -55 13 -215q7 -94 68.5 -169t127.5 -75q34 0 107 -2t110 -2q9 0 16 -7t7 -15q0 -13 -19 -50q-11 -20 -35 -27t-88 -7q-200 0 -241 18q-113 53 -151.5 119t-41.5 215q-49 0 -167.5 -16.5t-194.5 -30.5 q-73 -15 -103 -44t-100 -147q-49 -84 -73.5 -111.5t-43.5 -27.5q-12 0 -53 39.5t-41 50.5zM408 426q0 -18 32 -18q117 0 338 28v500q0 11 1 24.5t1 16.5q0 6 -12 6q-6 0 -14 -14t-18 -37t-17 -33q-72 -114 -165.5 -252t-125.5 -180q-20 -27 -20 -41z" />
<glyph unicode="&#xc7;" horiz-adv-x="1214" d="M213 492q0 123 25.5 226.5t67 175t99.5 127.5t118.5 89.5t128.5 55t124 29t111 7.5q78 0 129 -31t51 -65q0 -25 -42.5 -63.5t-68.5 -38.5q-10 0 -23 14.5t-26 31.5t-38 31.5t-56 14.5q-81 0 -150 -25.5t-115.5 -65.5t-83 -94t-58 -108t-35 -110t-18.5 -96t-5 -71 q0 -48 16.5 -105.5t48.5 -114.5t74.5 -103.5t100 -75.5t119.5 -29q69 0 135 26t106.5 57t77 57t51.5 26q20 0 31.5 -12t11.5 -31q0 -20 -53 -75.5t-115 -90.5q-71 -43 -227 -57q-29 -60 -29 -76t99 -49q36 -12 49.5 -32t13.5 -56q0 -42 -29.5 -75.5t-72.5 -51.5t-84 -27.5 t-72 -9.5q-13 0 -24 9t-11 22q0 16 27 22q49 10 94 42t45 55q0 43 -20 53l-74 35q-23 11 -23 35q0 19 15 49l26 49h-6q-50 0 -105 15.5t-115 53t-107 92.5t-78 143.5t-31 195.5z" />
<glyph unicode="&#xc8;" horiz-adv-x="985" d="M221 510q0 159 25 284.5t66.5 206.5t99.5 134.5t121 75.5t135 22q84 0 115.5 -13.5t31.5 -48.5q0 -21 -10.5 -33t-28.5 -12h-121q-42 0 -77 -12.5t-70 -46.5t-60.5 -89t-44.5 -145t-26 -210q41 32 92 32h276q39 0 39 -24q0 -14 -38.5 -47.5t-57.5 -34.5q-76 -6 -311 -12 q0 -247 97.5 -370.5t305.5 -123.5q45 0 60.5 -8.5t15.5 -34.5q0 -21 -33.5 -36t-105.5 -15q-97 0 -174.5 20t-128.5 51t-88 79t-57 94t-31 107.5t-14 106.5t-3 103zM387 1501q0 19 24.5 45.5t41.5 26.5q55 0 65 -31q28 -86 82 -143q13 -14 25.5 -28t20 -22t14.5 -16 l10.5 -12t6.5 -8t4 -6t1 -4q0 -8 -23 -14.5t-34 -6.5q-24 0 -82 42.5t-107 96t-49 80.5z" />
<glyph unicode="&#xc9;" horiz-adv-x="985" d="M221 510q0 159 25 284.5t66.5 206.5t99.5 134.5t121 75.5t135 22q84 0 115.5 -13.5t31.5 -48.5q0 -21 -10.5 -33t-28.5 -12h-121q-42 0 -77 -12.5t-70 -46.5t-60.5 -89t-44.5 -145t-26 -210q41 32 92 32h276q39 0 39 -24q0 -14 -38.5 -47.5t-57.5 -34.5q-76 -6 -311 -12 q0 -247 97.5 -370.5t305.5 -123.5q45 0 60.5 -8.5t15.5 -34.5q0 -21 -33.5 -36t-105.5 -15q-97 0 -174.5 20t-128.5 51t-88 79t-57 94t-31 107.5t-14 106.5t-3 103zM420 1309q0 18 20 32l236 195q42 37 61 37q16 0 47 -19t31 -36t-28.5 -45.5t-90.5 -61.5q-4 -2 -70.5 -38 t-120 -63.5t-59.5 -27.5q-26 0 -26 27z" />
<glyph unicode="&#xca;" horiz-adv-x="985" d="M221 510q0 159 25 284.5t66.5 206.5t99.5 134.5t121 75.5t135 22q84 0 115.5 -13.5t31.5 -48.5q0 -21 -10.5 -33t-28.5 -12h-121q-42 0 -77 -12.5t-70 -46.5t-60.5 -89t-44.5 -145t-26 -210q41 32 92 32h276q39 0 39 -24q0 -14 -38.5 -47.5t-57.5 -34.5q-76 -6 -311 -12 q0 -247 97.5 -370.5t305.5 -123.5q45 0 60.5 -8.5t15.5 -34.5q0 -21 -33.5 -36t-105.5 -15q-97 0 -174.5 20t-128.5 51t-88 79t-57 94t-31 107.5t-14 106.5t-3 103zM291 1303q0 13 7.5 39t16.5 34q139 118 178 147t68 29q55 0 110 -31t90 -70.5t57 -73t22 -42.5 q0 -10 -12.5 -16t-24.5 -6q-18 0 -112 60.5t-116 60.5q-25 0 -144.5 -76t-125.5 -76t-10 6.5t-4 14.5z" />
<glyph unicode="&#xcb;" horiz-adv-x="985" d="M221 510q0 159 25 284.5t66.5 206.5t99.5 134.5t121 75.5t135 22q84 0 115.5 -13.5t31.5 -48.5q0 -21 -10.5 -33t-28.5 -12h-121q-42 0 -77 -12.5t-70 -46.5t-60.5 -89t-44.5 -145t-26 -210q41 32 92 32h276q39 0 39 -24q0 -14 -38.5 -47.5t-57.5 -34.5q-76 -6 -311 -12 q0 -247 97.5 -370.5t305.5 -123.5q45 0 60.5 -8.5t15.5 -34.5q0 -21 -33.5 -36t-105.5 -15q-97 0 -174.5 20t-128.5 51t-88 79t-57 94t-31 107.5t-14 106.5t-3 103zM268 1405q0 34 32 84.5t62 50.5q21 0 60 -40.5t39 -63.5q0 -18 -15.5 -37t-66.5 -53q-16 -11 -39 -11 q-14 0 -43 27.5t-29 42.5zM657 1452q0 14 45.5 45t61.5 31q19 0 58.5 -41t39.5 -60q0 -17 -23.5 -54.5t-37.5 -37.5q-53 0 -98.5 42t-45.5 75z" />
<glyph unicode="&#xcc;" d="M217 1073q0 26 62 77.5t90 51.5q23 0 51.5 -17.5t28.5 -29.5q0 -16 -10 -52t-11 -59q-18 -272 -18 -882q0 -118 -15.5 -161.5t-50.5 -43.5q-26 0 -37 12.5t-20 85t-11 197.5t-2 381q0 81 -3 170t-3 115q0 63 -16 81q-35 40 -35 74zM236 1460q0 19 24 45.5t41 26.5 q56 0 66 -31q28 -86 82 -143l40 -45q41 -45 41 -51q0 -8 -23 -14.5t-34 -6.5q-24 0 -81.5 42.5t-106.5 96t-49 80.5z" />
<glyph unicode="&#xcd;" d="M135 1268q0 17 21 32l235 195q42 37 62 37q16 0 46.5 -19t30.5 -36t-28 -45.5t-90 -61.5q-4 -2 -70.5 -38t-120 -63.5t-59.5 -27.5q-27 0 -27 27zM217 1073q0 26 62 77.5t90 51.5q23 0 51.5 -17.5t28.5 -29.5q0 -16 -10 -52t-11 -59q-18 -272 -18 -882 q0 -118 -15.5 -161.5t-50.5 -43.5q-26 0 -37 12.5t-20 85t-11 197.5t-2 381q0 81 -3 170t-3 115q0 63 -16 81q-35 40 -35 74z" />
<glyph unicode="&#xce;" d="M68 1262q0 13 7.5 39t16.5 34q139 118 178 147t68 29q55 0 110 -31t90 -70.5t56.5 -73t21.5 -42.5q0 -10 -12 -16t-24 -6q-18 0 -112 60.5t-116 60.5q-25 0 -144.5 -76t-125.5 -76t-10 6.5t-4 14.5zM217 1073q0 26 62 77.5t90 51.5q23 0 51.5 -17.5t28.5 -29.5 q0 -16 -10 -52t-11 -59q-18 -272 -18 -882q0 -118 -15.5 -161.5t-50.5 -43.5q-26 0 -37 12.5t-20 85t-11 197.5t-2 381q0 81 -3 170t-3 115q0 63 -16 81q-35 40 -35 74z" />
<glyph unicode="&#xcf;" d="M45 1364q0 34 32 84.5t62 50.5q21 0 60 -40.5t39 -63.5q0 -18 -15.5 -37t-66.5 -53q-16 -11 -39 -11q-14 0 -43 27.5t-29 42.5zM217 1073q0 26 62 77.5t90 51.5q23 0 51.5 -17.5t28.5 -29.5q0 -16 -10 -52t-11 -59q-18 -272 -18 -882q0 -118 -15.5 -161.5t-50.5 -43.5 q-26 0 -37 12.5t-20 85t-11 197.5t-2 381q0 81 -3 170t-3 115q0 63 -16 81q-35 40 -35 74zM434 1411q0 14 45.5 45t61.5 31q19 0 58.5 -41t39.5 -60q0 -17 -23.5 -54.5t-37.5 -37.5q-53 0 -98.5 42t-45.5 75z" />
<glyph unicode="&#xd0;" horiz-adv-x="1327" d="M117 666q0 21 15.5 30t57.5 9q10 0 117 -5q0 80 -11 180.5t-24 159.5q-3 15 -16.5 21.5t-27 6t-24.5 7.5t-11 27q0 29 14.5 40.5t68.5 26.5l144 41q85 23 115 23q12 0 38.5 -2.5t80.5 -14t107 -30.5t112.5 -57.5t104 -88.5t74 -129.5t29.5 -175.5q0 -212 -28 -330.5 t-101 -220.5q-39 -55 -147.5 -106.5t-199.5 -77t-120 -25.5q-16 0 -44 4.5t-31 4.5l-115 16q-37 5 -51.5 12t-14.5 23q0 14 9 25.5t20.5 21t22 35t12.5 63.5q14 310 14 406q-37 0 -65 -5t-40 -11.5t-22.5 -11.5t-17.5 -5q-10 0 -27.5 40.5t-17.5 72.5zM432 213 q0 -74 15.5 -96.5t54.5 -22.5q80 0 142.5 15t118.5 55t92.5 104.5t57.5 167t21 240.5q0 97 -30 177.5t-74 129t-96 82.5t-92.5 47.5t-66.5 13.5q-33 0 -73.5 -13t-67.5 -30v-395q140 4 240 4q42 0 59 -7.5t17 -25.5q0 -15 -25.5 -32.5t-71.5 -30.5q-38 -10 -166 -10h-53v-82 q0 -53 -1 -152t-1 -139z" />
<glyph unicode="&#xd1;" horiz-adv-x="1896" d="M106 1122q0 20 28.5 42t64.5 22q9 0 20 -7t52 -43t116 -108q323 -311 563 -488t559 -343q17 169 17 276q0 143 -13 477q-1 38 -11.5 66t-21.5 41t-20.5 28t-9.5 29q0 31 51 48.5t98 17.5q68 0 68 -41q0 -3 -8.5 -58.5t-17.5 -221.5t-9 -437q0 -108 11.5 -213.5 t11.5 -130.5q0 -47 -49 -78t-86 -31q-14 0 -27 28.5t-36 68t-58 59.5q-468 269 -627.5 375t-279.5 219q0 -3 -19.5 -263.5t-42.5 -377.5q-9 -44 -31.5 -69t-48.5 -25q-25 0 -55.5 18t-30.5 41q0 15 17 64t37.5 110t37.5 173.5t17 238.5q0 95 -26 163.5t-85 131.5 q-102 111 -129 145t-27 53zM629 1292q0 29 55.5 88.5t93.5 59.5q45 0 107.5 -22.5t113.5 -45t68 -22.5q18 0 77 49t64 49q8 0 16.5 -15t8.5 -28q0 -27 -63.5 -94.5t-102.5 -67.5q-51 0 -156 45t-131 45q-19 0 -71 -38t-62 -38q-7 0 -12.5 11t-5.5 24z" />
<glyph unicode="&#xd2;" horiz-adv-x="1290" d="M180 559q0 83 18 164t59 158.5t100 136.5t149 95t199 36q84 0 156 -32.5t128.5 -97t88.5 -171t32 -244.5q0 -131 -42 -239t-112.5 -177t-159 -106t-184.5 -37q-79 0 -155 33.5t-138.5 95.5t-100.5 162t-38 223zM328 592q0 -28 6.5 -65.5t20.5 -86t40.5 -94t62 -84.5 t89.5 -62.5t119 -23.5q38 0 76.5 10t81.5 38t75.5 71t54 117t21.5 168q0 121 -25.5 211t-70 140.5t-98 74.5t-115.5 24q-104 0 -182 -61t-117 -159t-39 -218zM498 1460q0 19 24 45.5t41 26.5q56 0 66 -31q28 -86 82 -143q13 -14 25.5 -28t20 -22t14.5 -16l10.5 -12t6.5 -8 t4 -6t1 -4q0 -8 -23 -14.5t-35 -6.5q-24 0 -81.5 42.5t-106.5 96t-49 80.5z" />
<glyph unicode="&#xd3;" horiz-adv-x="1290" d="M180 559q0 83 18 164t59 158.5t100 136.5t149 95t199 36q84 0 156 -32.5t128.5 -97t88.5 -171t32 -244.5q0 -131 -42 -239t-112.5 -177t-159 -106t-184.5 -37q-79 0 -155 33.5t-138.5 95.5t-100.5 162t-38 223zM328 592q0 -28 6.5 -65.5t20.5 -86t40.5 -94t62 -84.5 t89.5 -62.5t119 -23.5q38 0 76.5 10t81.5 38t75.5 71t54 117t21.5 168q0 121 -25.5 211t-70 140.5t-98 74.5t-115.5 24q-104 0 -182 -61t-117 -159t-39 -218zM510 1268q0 18 20 32l236 195q42 37 61 37q16 0 47 -19t31 -36t-28.5 -45.5t-90.5 -61.5q-5 -3 -70.5 -38.5 t-119 -63t-59.5 -27.5q-27 0 -27 27z" />
<glyph unicode="&#xd4;" horiz-adv-x="1290" d="M180 559q0 83 18 164t59 158.5t100 136.5t149 95t199 36q84 0 156 -32.5t128.5 -97t88.5 -171t32 -244.5q0 -131 -42 -239t-112.5 -177t-159 -106t-184.5 -37q-79 0 -155 33.5t-138.5 95.5t-100.5 162t-38 223zM328 592q0 -28 6.5 -65.5t20.5 -86t40.5 -94t62 -84.5 t89.5 -62.5t119 -23.5q38 0 76.5 10t81.5 38t75.5 71t54 117t21.5 168q0 121 -25.5 211t-70 140.5t-98 74.5t-115.5 24q-104 0 -182 -61t-117 -159t-39 -218zM371 1262q0 13 7.5 39t16.5 34q139 118 178 147t68 29q55 0 110 -31t90 -70.5t57 -73t22 -42.5q0 -10 -12.5 -16 t-24.5 -6q-18 0 -112 60.5t-116 60.5q-25 0 -144.5 -76t-125.5 -76t-10 6.5t-4 14.5z" />
<glyph unicode="&#xd5;" horiz-adv-x="1290" d="M180 559q0 83 18 164t59 158.5t100 136.5t149 95t199 36q84 0 156 -32.5t128.5 -97t88.5 -171t32 -244.5q0 -131 -42 -239t-112.5 -177t-159 -106t-184.5 -37q-79 0 -155 33.5t-138.5 95.5t-100.5 162t-38 223zM328 592q0 -28 6.5 -65.5t20.5 -86t40.5 -94t62 -84.5 t89.5 -62.5t119 -23.5q38 0 76.5 10t81.5 38t75.5 71t54 117t21.5 168q0 121 -25.5 211t-70 140.5t-98 74.5t-115.5 24q-104 0 -182 -61t-117 -159t-39 -218zM352 1317q0 29 55.5 88t94.5 59q45 0 107.5 -22.5t113.5 -45t68 -22.5q18 0 77 49.5t64 49.5q8 0 16 -15t8 -28 q0 -27 -63 -94.5t-102 -67.5q-51 0 -156 45t-131 45q-19 0 -71 -38t-62 -38q-7 0 -13 11.5t-6 23.5z" />
<glyph unicode="&#xd6;" horiz-adv-x="1290" d="M180 559q0 83 18 164t59 158.5t100 136.5t149 95t199 36q84 0 156 -32.5t128.5 -97t88.5 -171t32 -244.5q0 -131 -42 -239t-112.5 -177t-159 -106t-184.5 -37q-79 0 -155 33.5t-138.5 95.5t-100.5 162t-38 223zM328 592q0 -28 6.5 -65.5t20.5 -86t40.5 -94t62 -84.5 t89.5 -62.5t119 -23.5q38 0 76.5 10t81.5 38t75.5 71t54 117t21.5 168q0 121 -25.5 211t-70 140.5t-98 74.5t-115.5 24q-104 0 -182 -61t-117 -159t-39 -218zM348 1364q0 34 32 84.5t62 50.5q21 0 60 -40.5t39 -63.5q0 -18 -15.5 -37t-66.5 -53q-17 -11 -39 -11 q-14 0 -43 27.5t-29 42.5zM737 1411q0 14 45.5 45t61.5 31q19 0 58.5 -41t39.5 -60q0 -17 -23.5 -54.5t-37.5 -37.5q-53 0 -98.5 42t-45.5 75z" />
<glyph unicode="&#xd7;" horiz-adv-x="1161" d="M119 57l397 392l-397 393l59 63l400 -395l401 397l63 -59l-403 -399l403 -392l-63 -65l-404 397l-399 -397z" />
<glyph unicode="&#xd8;" horiz-adv-x="1290" d="M180 559q0 83 18 164t59 158.5t100 136.5t149 95t199 36q75 0 139 -27q58 134 83 173.5t46 39.5q18 0 38.5 -20.5t20.5 -38.5q0 -6 -4.5 -14t-17 -28.5t-25.5 -45.5q-7 -16 -26.5 -55t-28.5 -60q180 -132 180 -469q0 -131 -42 -239t-112.5 -177t-159 -106t-184.5 -37 q-73 0 -143 31q-39 -84 -92 -215q-3 -7 -27 -20t-31 -13q-24 0 -45 16q-16 10 -16 25q0 3 4 9.5t11 17.5t12 20q2 5 13 27t34 69t53 107q-93 64 -149 176t-56 264zM328 592q0 -67 31 -164t96 -162q167 334 313 682q22 52 23 53q-54 29 -125 29q-104 0 -182 -61t-117 -159 t-39 -218zM526 211q59 -35 140 -35q38 0 76.5 10t81.5 38t75.5 71t54 117t21.5 168q0 248 -109 364q-199 -410 -340 -733z" />
<glyph unicode="&#xd9;" horiz-adv-x="1857" d="M43 1075q0 40 47 60q20 9 67.5 19.5t69.5 10.5q39 0 39 -51q0 -15 -5 -72t-5 -94q0 -55 47.5 -148.5t128.5 -195.5t175.5 -193t201 -150.5t192.5 -59.5q100 0 189 46.5t151 121t111 163t77.5 178t43 159.5t14.5 114v42.5t1.5 34t4.5 29.5t8.5 19.5t14 14t20.5 3.5 q25 0 109 -41q20 -10 27.5 -20.5t7.5 -32.5q0 -12 -14 -57.5t-40 -117t-67.5 -157t-92.5 -175.5t-120 -173.5t-145 -149.5t-172 -105.5t-197 -39.5q-78 0 -178 58.5t-196.5 150.5t-191 207.5t-165.5 227.5t-114.5 212.5t-43.5 161.5zM782 1436q0 19 24.5 45t41.5 26 q29 0 44 -6t21 -24q29 -88 82 -144q13 -14 25.5 -28t20 -22t14.5 -16l10.5 -12t6.5 -8t4 -6t1 -4q0 -8 -22.5 -14t-34.5 -6q-24 0 -82 42.5t-107 96t-49 80.5z" />
<glyph unicode="&#xda;" horiz-adv-x="1857" d="M43 1075q0 40 47 60q20 9 67.5 19.5t69.5 10.5q39 0 39 -51q0 -15 -5 -72t-5 -94q0 -55 47.5 -148.5t128.5 -195.5t175.5 -193t201 -150.5t192.5 -59.5q100 0 189 46.5t151 121t111 163t77.5 178t43 159.5t14.5 114v42.5t1.5 34t4.5 29.5t8.5 19.5t14 14t20.5 3.5 q25 0 109 -41q20 -10 27.5 -20.5t7.5 -32.5q0 -12 -14 -57.5t-40 -117t-67.5 -157t-92.5 -175.5t-120 -173.5t-145 -149.5t-172 -105.5t-197 -39.5q-78 0 -178 58.5t-196.5 150.5t-191 207.5t-165.5 227.5t-114.5 212.5t-43.5 161.5zM774 1243q0 18 21 33l235 194 q42 37 62 37q16 0 46.5 -19t30.5 -36t-28 -45t-90 -61q-4 -2 -70.5 -38t-120 -63.5t-59.5 -27.5q-27 0 -27 26z" />
<glyph unicode="&#xdb;" horiz-adv-x="1857" d="M43 1075q0 40 47 60q20 9 67.5 19.5t69.5 10.5q39 0 39 -51q0 -15 -5 -72t-5 -94q0 -55 47.5 -148.5t128.5 -195.5t175.5 -193t201 -150.5t192.5 -59.5q100 0 189 46.5t151 121t111 163t77.5 178t43 159.5t14.5 114v42.5t1.5 34t4.5 29.5t8.5 19.5t14 14t20.5 3.5 q25 0 109 -41q20 -10 27.5 -20.5t7.5 -32.5q0 -12 -14 -57.5t-40 -117t-67.5 -157t-92.5 -175.5t-120 -173.5t-145 -149.5t-172 -105.5t-197 -39.5q-78 0 -178 58.5t-196.5 150.5t-191 207.5t-165.5 227.5t-114.5 212.5t-43.5 161.5zM655 1237q0 13 8 39.5t17 34.5 q139 118 178 147t68 29q55 0 110 -31t90 -70.5t56.5 -73t21.5 -42.5q0 -10 -12.5 -16.5t-24.5 -6.5q-18 0 -111.5 60.5t-115.5 60.5q-25 0 -144.5 -75.5t-125.5 -75.5t-10.5 6t-4.5 14z" />
<glyph unicode="&#xdc;" horiz-adv-x="1857" d="M43 1075q0 40 47 60q20 9 67.5 19.5t69.5 10.5q39 0 39 -51q0 -15 -5 -72t-5 -94q0 -55 47.5 -148.5t128.5 -195.5t175.5 -193t201 -150.5t192.5 -59.5q100 0 189 46.5t151 121t111 163t77.5 178t43 159.5t14.5 114v42.5t1.5 34t4.5 29.5t8.5 19.5t14 14t20.5 3.5 q25 0 109 -41q20 -10 27.5 -20.5t7.5 -32.5q0 -12 -14 -57.5t-40 -117t-67.5 -157t-92.5 -175.5t-120 -173.5t-145 -149.5t-172 -105.5t-197 -39.5q-78 0 -178 58.5t-196.5 150.5t-191 207.5t-165.5 227.5t-114.5 212.5t-43.5 161.5zM633 1339q0 34 32 85t62 51 q21 0 59.5 -41t38.5 -64q0 -18 -15.5 -37t-66.5 -53q-15 -10 -38 -10q-14 0 -43 27t-29 42zM1022 1386q0 14 45 45t61 31q19 0 59 -40.5t40 -59.5q0 -16 -24 -54t-38 -38q-53 0 -98 41.5t-45 74.5z" />
<glyph unicode="&#xdd;" horiz-adv-x="1744" d="M2 1135q0 21 49 59.5t94 38.5q10 0 16.5 -10t11 -23.5t14.5 -32t24 -32.5q187 -178 413.5 -368.5t348.5 -297t157 -170.5q43 90 200 346.5t196 323.5q41 72 41 129q0 6 -2 17.5t-2 17.5q0 24 26 24q31 0 88.5 -22.5t57.5 -42.5q0 -30 -86 -168.5t-221.5 -341.5 t-180.5 -275q-30 -48 -43.5 -113t-13.5 -198q0 -16 2 -52.5t2 -56.5q0 -26 -66 -42.5t-98 -16.5q-16 0 -16 22t12 50t24.5 71.5t12.5 104.5q0 46 -8 78t-45 85.5t-97.5 111.5t-182.5 161t-281.5 228t-411.5 319q-35 26 -35 76zM758 1243q0 19 20 33l236 194q42 37 61 37 q16 0 47 -19t31 -36t-28.5 -45t-90.5 -61q-4 -2 -70.5 -38t-120 -63.5t-59.5 -27.5q-26 0 -26 26z" />
<glyph unicode="&#xde;" horiz-adv-x="1062" d="M227 1069q0 35 61.5 84t90.5 49q15 0 49.5 -16.5t34.5 -28.5q0 -6 -17 -59q-12 -40 -12 -160q66 20 107 20q40 0 126 -21.5t113 -43.5q57 -45 92 -105t35 -116q0 -103 -16 -154q-17 -51 -118.5 -149.5t-135.5 -98.5q-33 0 -84 20t-51 38q0 13 13.5 21t66.5 26 q82 28 130 92t48 111q0 66 -17.5 126t-58 104t-96.5 44q-46 0 -156 -45q-14 -157 -14 -657q0 -110 -14.5 -150.5t-55.5 -40.5q-30 0 -44.5 31t-14.5 104q0 42 -3 381.5t-3 409.5q0 45 -14 81t-28 60.5t-14 42.5z" />
<glyph unicode="&#xdf;" horiz-adv-x="1593" d="M166 84q0 21 9 31t20 10q15 0 67.5 -19.5t95.5 -19.5q53 0 88 37t35 84q0 55 -40.5 153.5t-89.5 189.5t-89.5 189t-40.5 152q0 28 17.5 75.5t50 101.5t72.5 102t92 80t102 32q45 0 104.5 -15.5t59.5 -43.5q0 -41 -16 -54t-72 -14q-128 -3 -191 -60.5t-63 -146.5 q0 -47 35 -134.5t76.5 -173t76.5 -193t35 -189.5q0 -17 -6 -49.5t-23.5 -79.5t-43 -87.5t-70 -69.5t-99.5 -29q-40 0 -105.5 23t-72.5 44q-14 44 -14 74zM963 84q0 21 8.5 31t19.5 10q15 0 68 -19.5t96 -19.5q53 0 88 37t35 84q0 55 -40.5 153.5t-89.5 189.5t-89.5 189 t-40.5 152q0 28 17.5 75.5t50 101.5t72.5 102t92 80t102 32q45 0 104.5 -15.5t59.5 -43.5q0 -40 -16.5 -53.5t-72.5 -14.5q-128 -3 -190.5 -60t-62.5 -147q0 -47 35 -134.5t76.5 -173t76.5 -193t35 -189.5q0 -17 -6 -49.5t-23.5 -79.5t-43 -87.5t-70 -69.5t-99.5 -29 q-40 0 -105.5 23t-72.5 44q-14 44 -14 74z" />
<glyph unicode="&#xe0;" horiz-adv-x="1366" d="M23 33q0 28 5 38t19 13q84 20 115 106q3 9 109 201t202 397.5t96 286.5q0 7 -13 43t-13 43q0 20 43 46t67 26q13 0 38.5 -26t41.5 -60q18 -37 87 -186t127 -264t128 -238q55 -96 102.5 -171t75.5 -113t48 -63t28 -34.5t8 -14.5q0 -36 -47 -36q-23 0 -81 9t-79 15 q-32 8 -51 74q-12 42 -67.5 153t-73.5 119q-36 19 -155.5 27t-219.5 8q-102 0 -128 -9.5t-44 -55.5q-14 -38 -72 -153t-63 -140q-10 -57 -39 -60q-21 -2 -64 -5.5t-74 -6t-36 -2.5q-9 0 -14.5 11t-5.5 22zM479 541q0 -15 35 -15h371l-162 318q-13 23 -23.5 50.5t-16 37.5 t-13.5 10q-7 0 -14 -14t-14.5 -39t-12.5 -35l-107 -217q-43 -85 -43 -96zM537 1460q0 19 24 45.5t41 26.5q56 0 66 -31q28 -86 82 -143l40 -45q41 -45 41 -51q0 -8 -23 -14.5t-34 -6.5q-24 0 -81.5 42.5t-106.5 96t-49 80.5z" />
<glyph unicode="&#xe1;" horiz-adv-x="1366" d="M23 33q0 28 5 38t19 13q84 20 115 106q3 9 109 201t202 397.5t96 286.5q0 7 -13 43t-13 43q0 20 43 46t67 26q13 0 38.5 -26t41.5 -60q18 -37 87 -186t127 -264t128 -238q55 -96 102.5 -171t75.5 -113t48 -63t28 -34.5t8 -14.5q0 -36 -47 -36q-23 0 -81 9t-79 15 q-32 8 -51 74q-12 42 -67.5 153t-73.5 119q-36 19 -155.5 27t-219.5 8q-102 0 -128 -9.5t-44 -55.5q-14 -38 -72 -153t-63 -140q-10 -57 -39 -60q-21 -2 -64 -5.5t-74 -6t-36 -2.5q-9 0 -14.5 11t-5.5 22zM453 1268q0 18 20 32l236 195q42 37 61 37q16 0 47 -19t31 -36 t-28.5 -45.5t-90.5 -61.5q-4 -2 -70.5 -38t-120 -63.5t-59.5 -27.5q-26 0 -26 27zM479 541q0 -15 35 -15h371l-162 318q-13 23 -23.5 50.5t-16 37.5t-13.5 10q-7 0 -14 -14t-14.5 -39t-12.5 -35l-107 -217q-43 -85 -43 -96z" />
<glyph unicode="&#xe2;" horiz-adv-x="1366" d="M23 33q0 28 5 38t19 13q84 20 115 106q3 9 109 201t202 397.5t96 286.5q0 7 -13 43t-13 43q0 20 43 46t67 26q13 0 38.5 -26t41.5 -60q18 -37 87 -186t127 -264t128 -238q55 -96 102.5 -171t75.5 -113t48 -63t28 -34.5t8 -14.5q0 -36 -47 -36q-23 0 -81 9t-79 15 q-32 8 -51 74q-12 42 -67.5 153t-73.5 119q-36 19 -155.5 27t-219.5 8q-102 0 -128 -9.5t-44 -55.5q-14 -38 -72 -153t-63 -140q-10 -57 -39 -60q-21 -2 -64 -5.5t-74 -6t-36 -2.5q-9 0 -14.5 11t-5.5 22zM385 1262q0 13 8 39t17 34q161 138 193 158q29 18 52 18 q55 0 110 -31t90 -70.5t57 -73t22 -42.5q0 -10 -12.5 -16t-24.5 -6q-18 0 -111.5 60.5t-115.5 60.5q-25 0 -145 -76t-126 -76t-10 6.5t-4 14.5zM479 541q0 -15 35 -15h371l-162 318q-13 23 -23.5 50.5t-16 37.5t-13.5 10q-7 0 -14 -14t-14.5 -39t-12.5 -35l-107 -217 q-43 -85 -43 -96z" />
<glyph unicode="&#xe3;" horiz-adv-x="1366" d="M23 33q0 28 5 38t19 13q84 20 115 106q3 9 109 201t202 397.5t96 286.5q0 7 -13 43t-13 43q0 20 43 46t67 26q13 0 38.5 -26t41.5 -60q18 -37 87 -186t127 -264t128 -238q55 -96 102.5 -171t75.5 -113t48 -63t28 -34.5t8 -14.5q0 -36 -47 -36q-23 0 -81 9t-79 15 q-32 8 -51 74q-12 42 -67.5 153t-73.5 119q-36 19 -155.5 27t-219.5 8q-102 0 -128 -9.5t-44 -55.5q-14 -38 -72 -153t-63 -140q-10 -57 -39 -60q-21 -2 -64 -5.5t-74 -6t-36 -2.5q-9 0 -14.5 11t-5.5 22zM340 1317q0 29 55.5 88t93.5 59q45 0 107.5 -22.5t113.5 -45 t68 -22.5q18 0 77.5 49.5t64.5 49.5q8 0 16 -15t8 -28q0 -27 -63.5 -94.5t-102.5 -67.5q-51 0 -155.5 45t-130.5 45q-19 0 -71.5 -38t-62.5 -38q-7 0 -12.5 11t-5.5 24zM479 541q0 -15 35 -15h371l-162 318q-13 23 -23.5 50.5t-16 37.5t-13.5 10q-7 0 -14 -14t-14.5 -39 t-12.5 -35l-107 -217q-43 -85 -43 -96z" />
<glyph unicode="&#xe4;" horiz-adv-x="1366" d="M23 33q0 28 5 38t19 13q84 20 115 106q3 9 109 201t202 397.5t96 286.5q0 7 -13 43t-13 43q0 20 43 46t67 26q13 0 38.5 -26t41.5 -60q18 -37 87 -186t127 -264t128 -238q55 -96 102.5 -171t75.5 -113t48 -63t28 -34.5t8 -14.5q0 -36 -47 -36q-23 0 -81 9t-79 15 q-32 8 -51 74q-12 42 -67.5 153t-73.5 119q-36 19 -155.5 27t-219.5 8q-102 0 -128 -9.5t-44 -55.5q-14 -38 -72 -153t-63 -140q-10 -57 -39 -60q-21 -2 -64 -5.5t-74 -6t-36 -2.5q-9 0 -14.5 11t-5.5 22zM362 1364q0 34 32.5 84.5t62.5 50.5q21 0 59.5 -40.5t38.5 -63.5 q0 -18 -15.5 -37t-66.5 -53q-17 -11 -39 -11q-14 0 -43 27.5t-29 42.5zM479 541q0 -15 35 -15h371l-162 318q-13 23 -23.5 50.5t-16 37.5t-13.5 10q-7 0 -14 -14t-14.5 -39t-12.5 -35l-107 -217q-43 -85 -43 -96zM752 1411q0 14 45 45t61 31q19 0 58.5 -41t39.5 -60 q0 -17 -23.5 -54.5t-37.5 -37.5q-53 0 -98 42t-45 75z" />
<glyph unicode="&#xe5;" horiz-adv-x="1366" d="M23 33q0 28 5 38t19 13q84 20 115 106q3 9 109 201t202 397.5t96 286.5q0 7 -13 43t-13 43q0 20 43 46t67 26q13 0 38.5 -26t41.5 -60q18 -37 87 -186t127 -264t128 -238q55 -96 102.5 -171t75.5 -113t48 -63t28 -34.5t8 -14.5q0 -36 -47 -36q-23 0 -81 9t-79 15 q-32 8 -51 74q-12 42 -67.5 153t-73.5 119q-36 19 -155.5 27t-219.5 8q-102 0 -128 -9.5t-44 -55.5q-14 -38 -72 -153t-63 -140q-10 -57 -39 -60q-21 -2 -64 -5.5t-74 -6t-36 -2.5q-9 0 -14.5 11t-5.5 22zM453 1397q0 20 10 47t22 37q14 13 45.5 28.5t49.5 20.5 q36 10 118 10q46 0 82 -12q29 -10 57.5 -42.5t28.5 -64.5q0 -59 -52.5 -107t-149.5 -48q-140 0 -177 32q-34 31 -34 99zM479 541q0 -15 35 -15h371l-162 318q-13 23 -23.5 50.5t-16 37.5t-13.5 10q-7 0 -14 -14t-14.5 -39t-12.5 -35l-107 -217q-43 -85 -43 -96zM547 1374 q0 -39 90 -39q55 0 89 16.5t34 45.5q0 14 -11 37t-28 28q-21 8 -72 8q-30 0 -43 -5.5t-26 -20.5q-33 -35 -33 -70z" />
<glyph unicode="&#xe6;" horiz-adv-x="1478" d="M2 49q0 10 23 39q120 150 223.5 290.5t190.5 273t125 192t106 170.5q49 83 49 143q0 21 14 29q30 16 69.5 31.5t59.5 15.5q33 0 33 -47q42 0 119.5 -1t105.5 -1q45 0 110.5 5t84.5 5q12 0 20 -7t8 -16q0 -11 -29 -50t-46 -42q-91 -14 -357 -14q-6 -100 -6 -391 q292 10 350 10q39 0 39 -33q0 -23 -13.5 -47.5t-33.5 -25.5l-342 -25q0 -55 13 -215q7 -94 68.5 -169t127.5 -75q34 0 107 -2t110 -2q9 0 16 -7t7 -15q0 -13 -19 -50q-11 -20 -35 -27t-88 -7q-200 0 -241 18q-113 53 -151.5 119t-41.5 215q-49 0 -167.5 -16.5t-194.5 -30.5 q-73 -15 -103 -44t-100 -147q-49 -84 -73.5 -111.5t-43.5 -27.5q-12 0 -53 39.5t-41 50.5zM408 426q0 -18 32 -18q117 0 338 28v500q0 11 1 24.5t1 16.5q0 6 -12 6q-6 0 -14 -14t-18 -37t-17 -33q-72 -114 -165.5 -252t-125.5 -180q-20 -27 -20 -41z" />
<glyph unicode="&#xe7;" horiz-adv-x="1214" d="M213 492q0 123 25.5 226.5t67 175t99.5 127.5t118.5 89.5t128.5 55t124 29t111 7.5q78 0 129 -31t51 -65q0 -25 -42.5 -63.5t-68.5 -38.5q-10 0 -23 14.5t-26 31.5t-38 31.5t-56 14.5q-81 0 -150 -25.5t-115.5 -65.5t-83 -94t-58 -108t-35 -110t-18.5 -96t-5 -71 q0 -48 16.5 -105.5t48.5 -114.5t74.5 -103.5t100 -75.5t119.5 -29q69 0 135 26t106.5 57t77 57t51.5 26q20 0 31.5 -12t11.5 -31q0 -20 -53 -75.5t-115 -90.5q-71 -43 -227 -57q-29 -60 -29 -76t99 -49q36 -12 49.5 -32t13.5 -56q0 -42 -29.5 -75.5t-72.5 -51.5t-84 -27.5 t-72 -9.5q-13 0 -24 9t-11 22q0 16 27 22q49 10 94 42t45 55q0 43 -20 53l-74 35q-23 11 -23 35q0 19 15 49l26 49h-6q-50 0 -105 15.5t-115 53t-107 92.5t-78 143.5t-31 195.5z" />
<glyph unicode="&#xe8;" horiz-adv-x="985" d="M221 510q0 159 25 284.5t66.5 206.5t99.5 134.5t121 75.5t135 22q84 0 115.5 -13.5t31.5 -48.5q0 -21 -10.5 -33t-28.5 -12h-121q-42 0 -77 -12.5t-70 -46.5t-60.5 -89t-44.5 -145t-26 -210q41 32 92 32h276q39 0 39 -24q0 -14 -38.5 -47.5t-57.5 -34.5q-76 -6 -311 -12 q0 -247 97.5 -370.5t305.5 -123.5q45 0 60.5 -8.5t15.5 -34.5q0 -21 -33.5 -36t-105.5 -15q-97 0 -174.5 20t-128.5 51t-88 79t-57 94t-31 107.5t-14 106.5t-3 103zM387 1501q0 19 24.5 45.5t41.5 26.5q55 0 65 -31q28 -86 82 -143q13 -14 25.5 -28t20 -22t14.5 -16 l10.5 -12t6.5 -8t4 -6t1 -4q0 -8 -23 -14.5t-34 -6.5q-24 0 -82 42.5t-107 96t-49 80.5z" />
<glyph unicode="&#xe9;" horiz-adv-x="985" d="M221 510q0 159 25 284.5t66.5 206.5t99.5 134.5t121 75.5t135 22q84 0 115.5 -13.5t31.5 -48.5q0 -21 -10.5 -33t-28.5 -12h-121q-42 0 -77 -12.5t-70 -46.5t-60.5 -89t-44.5 -145t-26 -210q41 32 92 32h276q39 0 39 -24q0 -14 -38.5 -47.5t-57.5 -34.5q-76 -6 -311 -12 q0 -247 97.5 -370.5t305.5 -123.5q45 0 60.5 -8.5t15.5 -34.5q0 -21 -33.5 -36t-105.5 -15q-97 0 -174.5 20t-128.5 51t-88 79t-57 94t-31 107.5t-14 106.5t-3 103zM420 1309q0 18 20 32l236 195q42 37 61 37q16 0 47 -19t31 -36t-28.5 -45.5t-90.5 -61.5q-4 -2 -70.5 -38 t-120 -63.5t-59.5 -27.5q-26 0 -26 27z" />
<glyph unicode="&#xea;" horiz-adv-x="985" d="M221 510q0 159 25 284.5t66.5 206.5t99.5 134.5t121 75.5t135 22q84 0 115.5 -13.5t31.5 -48.5q0 -21 -10.5 -33t-28.5 -12h-121q-42 0 -77 -12.5t-70 -46.5t-60.5 -89t-44.5 -145t-26 -210q41 32 92 32h276q39 0 39 -24q0 -14 -38.5 -47.5t-57.5 -34.5q-76 -6 -311 -12 q0 -247 97.5 -370.5t305.5 -123.5q45 0 60.5 -8.5t15.5 -34.5q0 -21 -33.5 -36t-105.5 -15q-97 0 -174.5 20t-128.5 51t-88 79t-57 94t-31 107.5t-14 106.5t-3 103zM291 1303q0 13 7.5 39t16.5 34q139 118 178 147t68 29q55 0 110 -31t90 -70.5t57 -73t22 -42.5 q0 -10 -12.5 -16t-24.5 -6q-18 0 -112 60.5t-116 60.5q-25 0 -144.5 -76t-125.5 -76t-10 6.5t-4 14.5z" />
<glyph unicode="&#xeb;" horiz-adv-x="985" d="M221 510q0 159 25 284.5t66.5 206.5t99.5 134.5t121 75.5t135 22q84 0 115.5 -13.5t31.5 -48.5q0 -21 -10.5 -33t-28.5 -12h-121q-42 0 -77 -12.5t-70 -46.5t-60.5 -89t-44.5 -145t-26 -210q41 32 92 32h276q39 0 39 -24q0 -14 -38.5 -47.5t-57.5 -34.5q-76 -6 -311 -12 q0 -247 97.5 -370.5t305.5 -123.5q45 0 60.5 -8.5t15.5 -34.5q0 -21 -33.5 -36t-105.5 -15q-97 0 -174.5 20t-128.5 51t-88 79t-57 94t-31 107.5t-14 106.5t-3 103zM268 1405q0 34 32 84.5t62 50.5q21 0 60 -40.5t39 -63.5q0 -18 -15.5 -37t-66.5 -53q-16 -11 -39 -11 q-14 0 -43 27.5t-29 42.5zM657 1452q0 14 45.5 45t61.5 31q19 0 58.5 -41t39.5 -60q0 -17 -23.5 -54.5t-37.5 -37.5q-53 0 -98.5 42t-45.5 75z" />
<glyph unicode="&#xec;" d="M217 1073q0 26 62 77.5t90 51.5q23 0 51.5 -17.5t28.5 -29.5q0 -16 -10 -52t-11 -59q-18 -272 -18 -882q0 -118 -15.5 -161.5t-50.5 -43.5q-26 0 -37 12.5t-20 85t-11 197.5t-2 381q0 81 -3 170t-3 115q0 63 -16 81q-35 40 -35 74zM236 1460q0 19 24 45.5t41 26.5 q56 0 66 -31q28 -86 82 -143l40 -45q41 -45 41 -51q0 -8 -23 -14.5t-34 -6.5q-24 0 -81.5 42.5t-106.5 96t-49 80.5z" />
<glyph unicode="&#xed;" d="M135 1268q0 17 21 32l235 195q42 37 62 37q16 0 46.5 -19t30.5 -36t-28 -45.5t-90 -61.5q-4 -2 -70.5 -38t-120 -63.5t-59.5 -27.5q-27 0 -27 27zM217 1073q0 26 62 77.5t90 51.5q23 0 51.5 -17.5t28.5 -29.5q0 -16 -10 -52t-11 -59q-18 -272 -18 -882 q0 -118 -15.5 -161.5t-50.5 -43.5q-26 0 -37 12.5t-20 85t-11 197.5t-2 381q0 81 -3 170t-3 115q0 63 -16 81q-35 40 -35 74z" />
<glyph unicode="&#xee;" d="M68 1262q0 13 7.5 39t16.5 34q139 118 178 147t68 29q55 0 110 -31t90 -70.5t56.5 -73t21.5 -42.5q0 -10 -12 -16t-24 -6q-18 0 -112 60.5t-116 60.5q-25 0 -144.5 -76t-125.5 -76t-10 6.5t-4 14.5zM217 1073q0 26 62 77.5t90 51.5q23 0 51.5 -17.5t28.5 -29.5 q0 -16 -10 -52t-11 -59q-18 -272 -18 -882q0 -118 -15.5 -161.5t-50.5 -43.5q-26 0 -37 12.5t-20 85t-11 197.5t-2 381q0 81 -3 170t-3 115q0 63 -16 81q-35 40 -35 74z" />
<glyph unicode="&#xef;" d="M45 1364q0 34 32 84.5t62 50.5q21 0 60 -40.5t39 -63.5q0 -18 -15.5 -37t-66.5 -53q-16 -11 -39 -11q-14 0 -43 27.5t-29 42.5zM217 1073q0 26 62 77.5t90 51.5q23 0 51.5 -17.5t28.5 -29.5q0 -16 -10 -52t-11 -59q-18 -272 -18 -882q0 -118 -15.5 -161.5t-50.5 -43.5 q-26 0 -37 12.5t-20 85t-11 197.5t-2 381q0 81 -3 170t-3 115q0 63 -16 81q-35 40 -35 74zM434 1411q0 14 45.5 45t61.5 31q19 0 58.5 -41t39.5 -60q0 -17 -23.5 -54.5t-37.5 -37.5q-53 0 -98.5 42t-45.5 75z" />
<glyph unicode="&#xf0;" horiz-adv-x="1327" d="M117 666q0 21 15.5 30t57.5 9q10 0 117 -5q0 80 -11 180.5t-24 159.5q-3 15 -16.5 21.5t-27 6t-24.5 7.5t-11 27q0 29 14.5 40.5t68.5 26.5l144 41q85 23 115 23q12 0 38.5 -2.5t80.5 -14t107 -30.5t112.5 -57.5t104 -88.5t74 -129.5t29.5 -175.5q0 -212 -28 -330.5 t-101 -220.5q-39 -55 -147.5 -106.5t-199.5 -77t-120 -25.5q-16 0 -44 4.5t-31 4.5l-115 16q-37 5 -51.5 12t-14.5 23q0 14 9 25.5t20.5 21t22 35t12.5 63.5q14 310 14 406q-37 0 -65 -5t-40 -11.5t-22.5 -11.5t-17.5 -5q-10 0 -27.5 40.5t-17.5 72.5zM432 213 q0 -74 15.5 -96.5t54.5 -22.5q80 0 142.5 15t118.5 55t92.5 104.5t57.5 167t21 240.5q0 97 -30 177.5t-74 129t-96 82.5t-92.5 47.5t-66.5 13.5q-33 0 -73.5 -13t-67.5 -30v-395q140 4 240 4q42 0 59 -7.5t17 -25.5q0 -15 -25.5 -32.5t-71.5 -30.5q-38 -10 -166 -10h-53v-82 q0 -53 -1 -152t-1 -139z" />
<glyph unicode="&#xf1;" horiz-adv-x="1896" d="M106 1122q0 20 28.5 42t64.5 22q9 0 20 -7t52 -43t116 -108q323 -311 563 -488t559 -343q17 169 17 276q0 143 -13 477q-1 38 -11.5 66t-21.5 41t-20.5 28t-9.5 29q0 31 51 48.5t98 17.5q68 0 68 -41q0 -3 -8.5 -58.5t-17.5 -221.5t-9 -437q0 -108 11.5 -213.5 t11.5 -130.5q0 -47 -49 -78t-86 -31q-14 0 -27 28.5t-36 68t-58 59.5q-468 269 -627.5 375t-279.5 219q0 -3 -19.5 -263.5t-42.5 -377.5q-9 -44 -31.5 -69t-48.5 -25q-25 0 -55.5 18t-30.5 41q0 15 17 64t37.5 110t37.5 173.5t17 238.5q0 95 -26 163.5t-85 131.5 q-102 111 -129 145t-27 53zM629 1292q0 29 55.5 88.5t93.5 59.5q45 0 107.5 -22.5t113.5 -45t68 -22.5q18 0 77 49t64 49q8 0 16.5 -15t8.5 -28q0 -27 -63.5 -94.5t-102.5 -67.5q-51 0 -156 45t-131 45q-19 0 -71 -38t-62 -38q-7 0 -12.5 11t-5.5 24z" />
<glyph unicode="&#xf2;" horiz-adv-x="1290" d="M180 559q0 83 18 164t59 158.5t100 136.5t149 95t199 36q84 0 156 -32.5t128.5 -97t88.5 -171t32 -244.5q0 -131 -42 -239t-112.5 -177t-159 -106t-184.5 -37q-79 0 -155 33.5t-138.5 95.5t-100.5 162t-38 223zM328 592q0 -28 6.5 -65.5t20.5 -86t40.5 -94t62 -84.5 t89.5 -62.5t119 -23.5q38 0 76.5 10t81.5 38t75.5 71t54 117t21.5 168q0 121 -25.5 211t-70 140.5t-98 74.5t-115.5 24q-104 0 -182 -61t-117 -159t-39 -218zM498 1460q0 19 24 45.5t41 26.5q56 0 66 -31q28 -86 82 -143q13 -14 25.5 -28t20 -22t14.5 -16l10.5 -12t6.5 -8 t4 -6t1 -4q0 -8 -23 -14.5t-35 -6.5q-24 0 -81.5 42.5t-106.5 96t-49 80.5z" />
<glyph unicode="&#xf3;" horiz-adv-x="1290" d="M180 559q0 83 18 164t59 158.5t100 136.5t149 95t199 36q84 0 156 -32.5t128.5 -97t88.5 -171t32 -244.5q0 -131 -42 -239t-112.5 -177t-159 -106t-184.5 -37q-79 0 -155 33.5t-138.5 95.5t-100.5 162t-38 223zM328 592q0 -28 6.5 -65.5t20.5 -86t40.5 -94t62 -84.5 t89.5 -62.5t119 -23.5q38 0 76.5 10t81.5 38t75.5 71t54 117t21.5 168q0 121 -25.5 211t-70 140.5t-98 74.5t-115.5 24q-104 0 -182 -61t-117 -159t-39 -218zM510 1268q0 18 20 32l236 195q42 37 61 37q16 0 47 -19t31 -36t-28.5 -45.5t-90.5 -61.5q-5 -3 -70.5 -38.5 t-119 -63t-59.5 -27.5q-27 0 -27 27z" />
<glyph unicode="&#xf4;" horiz-adv-x="1290" d="M180 559q0 83 18 164t59 158.5t100 136.5t149 95t199 36q84 0 156 -32.5t128.5 -97t88.5 -171t32 -244.5q0 -131 -42 -239t-112.5 -177t-159 -106t-184.5 -37q-79 0 -155 33.5t-138.5 95.5t-100.5 162t-38 223zM328 592q0 -28 6.5 -65.5t20.5 -86t40.5 -94t62 -84.5 t89.5 -62.5t119 -23.5q38 0 76.5 10t81.5 38t75.5 71t54 117t21.5 168q0 121 -25.5 211t-70 140.5t-98 74.5t-115.5 24q-104 0 -182 -61t-117 -159t-39 -218zM371 1262q0 13 7.5 39t16.5 34q139 118 178 147t68 29q55 0 110 -31t90 -70.5t57 -73t22 -42.5q0 -10 -12.5 -16 t-24.5 -6q-18 0 -112 60.5t-116 60.5q-25 0 -144.5 -76t-125.5 -76t-10 6.5t-4 14.5z" />
<glyph unicode="&#xf5;" horiz-adv-x="1290" d="M180 559q0 83 18 164t59 158.5t100 136.5t149 95t199 36q84 0 156 -32.5t128.5 -97t88.5 -171t32 -244.5q0 -131 -42 -239t-112.5 -177t-159 -106t-184.5 -37q-79 0 -155 33.5t-138.5 95.5t-100.5 162t-38 223zM328 592q0 -28 6.5 -65.5t20.5 -86t40.5 -94t62 -84.5 t89.5 -62.5t119 -23.5q38 0 76.5 10t81.5 38t75.5 71t54 117t21.5 168q0 121 -25.5 211t-70 140.5t-98 74.5t-115.5 24q-104 0 -182 -61t-117 -159t-39 -218zM352 1317q0 29 55.5 88t94.5 59q45 0 107.5 -22.5t113.5 -45t68 -22.5q18 0 77 49.5t64 49.5q8 0 16 -15t8 -28 q0 -27 -63 -94.5t-102 -67.5q-51 0 -156 45t-131 45q-19 0 -71 -38t-62 -38q-7 0 -13 11.5t-6 23.5z" />
<glyph unicode="&#xf6;" horiz-adv-x="1290" d="M180 559q0 83 18 164t59 158.5t100 136.5t149 95t199 36q84 0 156 -32.5t128.5 -97t88.5 -171t32 -244.5q0 -131 -42 -239t-112.5 -177t-159 -106t-184.5 -37q-79 0 -155 33.5t-138.5 95.5t-100.5 162t-38 223zM328 592q0 -28 6.5 -65.5t20.5 -86t40.5 -94t62 -84.5 t89.5 -62.5t119 -23.5q38 0 76.5 10t81.5 38t75.5 71t54 117t21.5 168q0 121 -25.5 211t-70 140.5t-98 74.5t-115.5 24q-104 0 -182 -61t-117 -159t-39 -218zM348 1364q0 34 32 84.5t62 50.5q21 0 60 -40.5t39 -63.5q0 -18 -15.5 -37t-66.5 -53q-17 -11 -39 -11 q-14 0 -43 27.5t-29 42.5zM737 1411q0 14 45.5 45t61.5 31q19 0 58.5 -41t39.5 -60q0 -17 -23.5 -54.5t-37.5 -37.5q-53 0 -98.5 42t-45.5 75z" />
<glyph unicode="&#xf7;" horiz-adv-x="1161" d="M102 422v84h955v-84h-955zM508 147q0 32 22 54t54 22h2q27 0 49 -22.5t22 -53.5q0 -29 -22.5 -53t-50.5 -24q-31 0 -53.5 23.5t-22.5 53.5zM510 782q0 30 22 52t52 22q31 0 53 -21.5t22 -52.5q0 -32 -22 -53.5t-53 -21.5h-2q-28 0 -50 21.5t-22 53.5z" />
<glyph unicode="&#xf8;" horiz-adv-x="1290" d="M180 559q0 83 18 164t59 158.5t100 136.5t149 95t199 36q75 0 139 -27q58 134 83 173.5t46 39.5q18 0 38.5 -20.5t20.5 -38.5q0 -6 -4.5 -14t-17 -28.5t-25.5 -45.5q-7 -16 -26.5 -55t-28.5 -60q180 -132 180 -469q0 -131 -42 -239t-112.5 -177t-159 -106t-184.5 -37 q-73 0 -143 31q-39 -84 -92 -215q-3 -7 -27 -20t-31 -13q-24 0 -45 16q-16 10 -16 25q0 3 4 9.5t11 17.5t12 20q2 5 13 27t34 69t53 107q-93 64 -149 176t-56 264zM328 592q0 -67 31 -164t96 -162q167 334 313 682q22 52 23 53q-54 29 -125 29q-104 0 -182 -61t-117 -159 t-39 -218zM526 211q59 -35 140 -35q38 0 76.5 10t81.5 38t75.5 71t54 117t21.5 168q0 248 -109 364q-199 -410 -340 -733z" />
<glyph unicode="&#xf9;" horiz-adv-x="1857" d="M43 1075q0 40 47 60q20 9 67.5 19.5t69.5 10.5q39 0 39 -51q0 -15 -5 -72t-5 -94q0 -55 47.5 -148.5t128.5 -195.5t175.5 -193t201 -150.5t192.5 -59.5q100 0 189 46.5t151 121t111 163t77.5 178t43 159.5t14.5 114v42.5t1.5 34t4.5 29.5t8.5 19.5t14 14t20.5 3.5 q25 0 109 -41q20 -10 27.5 -20.5t7.5 -32.5q0 -12 -14 -57.5t-40 -117t-67.5 -157t-92.5 -175.5t-120 -173.5t-145 -149.5t-172 -105.5t-197 -39.5q-78 0 -178 58.5t-196.5 150.5t-191 207.5t-165.5 227.5t-114.5 212.5t-43.5 161.5zM782 1436q0 19 24.5 45t41.5 26 q29 0 44 -6t21 -24q29 -88 82 -144q13 -14 25.5 -28t20 -22t14.5 -16l10.5 -12t6.5 -8t4 -6t1 -4q0 -8 -22.5 -14t-34.5 -6q-24 0 -82 42.5t-107 96t-49 80.5z" />
<glyph unicode="&#xfa;" horiz-adv-x="1857" d="M43 1075q0 40 47 60q20 9 67.5 19.5t69.5 10.5q39 0 39 -51q0 -15 -5 -72t-5 -94q0 -55 47.5 -148.5t128.5 -195.5t175.5 -193t201 -150.5t192.5 -59.5q100 0 189 46.5t151 121t111 163t77.5 178t43 159.5t14.5 114v42.5t1.5 34t4.5 29.5t8.5 19.5t14 14t20.5 3.5 q25 0 109 -41q20 -10 27.5 -20.5t7.5 -32.5q0 -12 -14 -57.5t-40 -117t-67.5 -157t-92.5 -175.5t-120 -173.5t-145 -149.5t-172 -105.5t-197 -39.5q-78 0 -178 58.5t-196.5 150.5t-191 207.5t-165.5 227.5t-114.5 212.5t-43.5 161.5zM774 1243q0 18 21 33l235 194 q42 37 62 37q16 0 46.5 -19t30.5 -36t-28 -45t-90 -61q-4 -2 -70.5 -38t-120 -63.5t-59.5 -27.5q-27 0 -27 26z" />
<glyph unicode="&#xfb;" horiz-adv-x="1857" d="M43 1075q0 40 47 60q20 9 67.5 19.5t69.5 10.5q39 0 39 -51q0 -15 -5 -72t-5 -94q0 -55 47.5 -148.5t128.5 -195.5t175.5 -193t201 -150.5t192.5 -59.5q100 0 189 46.5t151 121t111 163t77.5 178t43 159.5t14.5 114v42.5t1.5 34t4.5 29.5t8.5 19.5t14 14t20.5 3.5 q25 0 109 -41q20 -10 27.5 -20.5t7.5 -32.5q0 -12 -14 -57.5t-40 -117t-67.5 -157t-92.5 -175.5t-120 -173.5t-145 -149.5t-172 -105.5t-197 -39.5q-78 0 -178 58.5t-196.5 150.5t-191 207.5t-165.5 227.5t-114.5 212.5t-43.5 161.5zM655 1237q0 13 8 39.5t17 34.5 q139 118 178 147t68 29q55 0 110 -31t90 -70.5t56.5 -73t21.5 -42.5q0 -10 -12.5 -16.5t-24.5 -6.5q-18 0 -111.5 60.5t-115.5 60.5q-25 0 -144.5 -75.5t-125.5 -75.5t-10.5 6t-4.5 14z" />
<glyph unicode="&#xfc;" horiz-adv-x="1857" d="M43 1075q0 40 47 60q20 9 67.5 19.5t69.5 10.5q39 0 39 -51q0 -15 -5 -72t-5 -94q0 -55 47.5 -148.5t128.5 -195.5t175.5 -193t201 -150.5t192.5 -59.5q100 0 189 46.5t151 121t111 163t77.5 178t43 159.5t14.5 114v42.5t1.5 34t4.5 29.5t8.5 19.5t14 14t20.5 3.5 q25 0 109 -41q20 -10 27.5 -20.5t7.5 -32.5q0 -12 -14 -57.5t-40 -117t-67.5 -157t-92.5 -175.5t-120 -173.5t-145 -149.5t-172 -105.5t-197 -39.5q-78 0 -178 58.5t-196.5 150.5t-191 207.5t-165.5 227.5t-114.5 212.5t-43.5 161.5zM633 1339q0 34 32 85t62 51 q21 0 59.5 -41t38.5 -64q0 -18 -15.5 -37t-66.5 -53q-15 -10 -38 -10q-14 0 -43 27t-29 42zM1022 1386q0 14 45 45t61 31q19 0 59 -40.5t40 -59.5q0 -16 -24 -54t-38 -38q-53 0 -98 41.5t-45 74.5z" />
<glyph unicode="&#xfd;" horiz-adv-x="1744" d="M2 1135q0 21 49 59.5t94 38.5q10 0 16.5 -10t11 -23.5t14.5 -32t24 -32.5q187 -178 413.5 -368.5t348.5 -297t157 -170.5q43 90 200 346.5t196 323.5q41 72 41 129q0 6 -2 17.5t-2 17.5q0 24 26 24q31 0 88.5 -22.5t57.5 -42.5q0 -30 -86 -168.5t-221.5 -341.5 t-180.5 -275q-30 -48 -43.5 -113t-13.5 -198q0 -16 2 -52.5t2 -56.5q0 -26 -66 -42.5t-98 -16.5q-16 0 -16 22t12 50t24.5 71.5t12.5 104.5q0 46 -8 78t-45 85.5t-97.5 111.5t-182.5 161t-281.5 228t-411.5 319q-35 26 -35 76zM758 1243q0 19 20 33l236 194q42 37 61 37 q16 0 47 -19t31 -36t-28.5 -45t-90.5 -61q-4 -2 -70.5 -38t-120 -63.5t-59.5 -27.5q-26 0 -26 26z" />
<glyph unicode="&#xfe;" horiz-adv-x="1062" d="M227 1069q0 35 61.5 84t90.5 49q15 0 49.5 -16.5t34.5 -28.5q0 -6 -17 -59q-12 -40 -12 -160q66 20 107 20q40 0 126 -21.5t113 -43.5q57 -45 92 -105t35 -116q0 -103 -16 -154q-17 -51 -118.5 -149.5t-135.5 -98.5q-33 0 -84 20t-51 38q0 13 13.5 21t66.5 26 q82 28 130 92t48 111q0 66 -17.5 126t-58 104t-96.5 44q-46 0 -156 -45q-14 -157 -14 -657q0 -110 -14.5 -150.5t-55.5 -40.5q-30 0 -44.5 31t-14.5 104q0 42 -3 381.5t-3 409.5q0 45 -14 81t-28 60.5t-14 42.5z" />
<glyph unicode="&#xff;" horiz-adv-x="1744" d="M2 1135q0 21 49 59.5t94 38.5q10 0 16.5 -10t11 -23.5t14.5 -32t24 -32.5q187 -178 413.5 -368.5t348.5 -297t157 -170.5q43 90 200 346.5t196 323.5q41 72 41 129q0 6 -2 17.5t-2 17.5q0 24 26 24q31 0 88.5 -22.5t57.5 -42.5q0 -30 -86 -168.5t-221.5 -341.5 t-180.5 -275q-30 -48 -43.5 -113t-13.5 -198q0 -16 2 -52.5t2 -56.5q0 -26 -66 -42.5t-98 -16.5q-16 0 -16 22t12 50t24.5 71.5t12.5 104.5q0 46 -8 78t-45 85.5t-97.5 111.5t-182.5 161t-281.5 228t-411.5 319q-35 26 -35 76zM627 1339q0 34 32 85t62 51q21 0 59.5 -41 t38.5 -64q0 -18 -15.5 -37t-66.5 -53q-15 -10 -39 -10q-14 0 -42.5 27t-28.5 42zM1016 1386q0 14 45 45t61 31q19 0 59 -40.5t40 -59.5q0 -16 -24 -54t-38 -38q-53 0 -98 41.5t-45 74.5z" />
<glyph unicode="&#x152;" horiz-adv-x="1744" d="M180 559q0 151 37.5 265.5t136.5 222.5q133 145 316 145q38 0 84 -17t91 -48.5t82 -84.5t52 -118h4q31 149 142 221t280 72q99 0 145.5 -4t58 -11t11.5 -22t-24 -42.5t-44 -27.5q-140 0 -229 -17t-152 -61t-92 -118t-37 -191q86 0 262 4t218 4q24 0 24 -24q0 -22 -20 -52 t-43 -30q-212 0 -439 -25q24 -235 126.5 -363t289.5 -128q21 0 64 1t59 1q25 0 25 -23q0 -13 -41 -63q-17 -21 -49 -28t-88 -7q-91 0 -170 35.5t-134 94.5t-92 129t-53 146h-4q-9 -59 -25 -111t-45.5 -103t-69.5 -87.5t-98 -59t-129 -22.5q-81 0 -161.5 51.5t-138.5 131 t-94 177t-36 187.5zM336 553q0 -194 83 -320.5t202 -126.5q56 0 102.5 28.5t77 73t54 104t36 115.5t20.5 113t10.5 91.5t2.5 56.5q0 55 -15.5 118.5t-44.5 124.5t-80.5 101.5t-115.5 40.5q-56 0 -92.5 -15.5t-77.5 -51.5q-91 -81 -126.5 -184.5t-35.5 -268.5z" />
<glyph unicode="&#x153;" horiz-adv-x="1744" d="M180 559q0 151 37.5 265.5t136.5 222.5q133 145 316 145q38 0 84 -17t91 -48.5t82 -84.5t52 -118h4q31 149 142 221t280 72q99 0 145.5 -4t58 -11t11.5 -22t-24 -42.5t-44 -27.5q-140 0 -229 -17t-152 -61t-92 -118t-37 -191q86 0 262 4t218 4q24 0 24 -24q0 -22 -20 -52 t-43 -30q-212 0 -439 -25q24 -235 126.5 -363t289.5 -128q21 0 64 1t59 1q25 0 25 -23q0 -13 -41 -63q-17 -21 -49 -28t-88 -7q-91 0 -170 35.5t-134 94.5t-92 129t-53 146h-4q-9 -59 -25 -111t-45.5 -103t-69.5 -87.5t-98 -59t-129 -22.5q-81 0 -161.5 51.5t-138.5 131 t-94 177t-36 187.5zM336 553q0 -194 83 -320.5t202 -126.5q56 0 102.5 28.5t77 73t54 104t36 115.5t20.5 113t10.5 91.5t2.5 56.5q0 55 -15.5 118.5t-44.5 124.5t-80.5 101.5t-115.5 40.5q-56 0 -92.5 -15.5t-77.5 -51.5q-91 -81 -126.5 -184.5t-35.5 -268.5z" />
<glyph unicode="&#x178;" horiz-adv-x="1744" d="M2 1135q0 21 49 59.5t94 38.5q10 0 16.5 -10t11 -23.5t14.5 -32t24 -32.5q187 -178 413.5 -368.5t348.5 -297t157 -170.5q43 90 200 346.5t196 323.5q41 72 41 129q0 6 -2 17.5t-2 17.5q0 24 26 24q31 0 88.5 -22.5t57.5 -42.5q0 -30 -86 -168.5t-221.5 -341.5 t-180.5 -275q-30 -48 -43.5 -113t-13.5 -198q0 -16 2 -52.5t2 -56.5q0 -26 -66 -42.5t-98 -16.5q-16 0 -16 22t12 50t24.5 71.5t12.5 104.5q0 46 -8 78t-45 85.5t-97.5 111.5t-182.5 161t-281.5 228t-411.5 319q-35 26 -35 76zM627 1339q0 34 32 85t62 51q21 0 59.5 -41 t38.5 -64q0 -18 -15.5 -37t-66.5 -53q-15 -10 -39 -10q-14 0 -42.5 27t-28.5 42zM1016 1386q0 14 45 45t61 31q19 0 59 -40.5t40 -59.5q0 -16 -24 -54t-38 -38q-53 0 -98 41.5t-45 74.5z" />
<glyph unicode="&#x2c6;" horiz-adv-x="569" d="M10 1262q0 13 8 39t17 34q139 118 178 147t68 29q55 0 110 -31t90 -70.5t56.5 -73t21.5 -42.5q0 -10 -12.5 -16t-24.5 -6q-18 0 -111.5 60.5t-115.5 60.5q-25 0 -144.5 -76t-125.5 -76t-10.5 6.5t-4.5 14.5z" />
<glyph unicode="&#x2dc;" horiz-adv-x="569" d="M-59 1317q0 29 55.5 88t93.5 59q45 0 107.5 -22.5t113.5 -45t68 -22.5q18 0 77 49.5t64 49.5q8 0 16.5 -15t8.5 -28q0 -27 -63.5 -94.5t-102.5 -67.5q-51 0 -156 45t-131 45q-19 0 -71 -38t-62 -38q-7 0 -12.5 11t-5.5 24z" />
<glyph unicode="&#x2000;" horiz-adv-x="786" />
<glyph unicode="&#x2001;" horiz-adv-x="1573" />
<glyph unicode="&#x2002;" horiz-adv-x="786" />
<glyph unicode="&#x2003;" horiz-adv-x="1573" />
<glyph unicode="&#x2004;" horiz-adv-x="524" />
<glyph unicode="&#x2005;" horiz-adv-x="393" />
<glyph unicode="&#x2006;" horiz-adv-x="262" />
<glyph unicode="&#x2007;" horiz-adv-x="262" />
<glyph unicode="&#x2008;" horiz-adv-x="196" />
<glyph unicode="&#x2009;" horiz-adv-x="314" />
<glyph unicode="&#x200a;" horiz-adv-x="87" />
<glyph unicode="&#x2010;" d="M129 526q0 22 30.5 70.5t61.5 48.5q7 0 25.5 -7.5t56 -14.5t90.5 -7q47 0 112 7.5t75 7.5q16 0 24 -23.5t8 -40.5q0 -10 -25.5 -33.5t-41.5 -23.5q-8 0 -122 -6t-226 -6q-68 0 -68 28z" />
<glyph unicode="&#x2011;" d="M129 526q0 22 30.5 70.5t61.5 48.5q7 0 25.5 -7.5t56 -14.5t90.5 -7q47 0 112 7.5t75 7.5q16 0 24 -23.5t8 -40.5q0 -10 -25.5 -33.5t-41.5 -23.5q-8 0 -122 -6t-226 -6q-68 0 -68 28z" />
<glyph unicode="&#x2012;" d="M129 526q0 22 30.5 70.5t61.5 48.5q7 0 25.5 -7.5t56 -14.5t90.5 -7q47 0 112 7.5t75 7.5q16 0 24 -23.5t8 -40.5q0 -10 -25.5 -33.5t-41.5 -23.5q-8 0 -122 -6t-226 -6q-68 0 -68 28z" />
<glyph unicode="&#x2013;" horiz-adv-x="1024" d="M0 557v82h1024v-82h-1024z" />
<glyph unicode="&#x2014;" horiz-adv-x="2048" d="M0 557v82h2048v-82h-2048z" />
<glyph unicode="&#x2018;" horiz-adv-x="569" d="M135 760q0 30 115.5 251.5t130.5 221.5q13 0 33 -11.5t20 -27.5q0 -7 -54 -179t-54 -198q0 -6 2 -21t2 -28t-48.5 -40.5t-66.5 -27.5q-17 0 -48.5 19t-31.5 41z" />
<glyph unicode="&#x2019;" horiz-adv-x="569" d="M135 739q0 7 54.5 179t54.5 198q0 6 -2 21t-2 28t48 40.5t66 27.5q17 0 48.5 -18.5t31.5 -40.5q0 -30 -115.5 -252t-130.5 -222q-13 0 -33 11.5t-20 27.5z" />
<glyph unicode="&#x201a;" horiz-adv-x="569" d="M135 -166q0 7 54.5 179t54.5 198q0 6 -2 21t-2 28t48 40.5t66 27.5q17 0 48.5 -19t31.5 -41q0 -30 -115.5 -251.5t-130.5 -221.5q-13 0 -33 11.5t-20 27.5z" />
<glyph unicode="&#x201c;" horiz-adv-x="872" d="M119 756q0 20 43.5 114t95.5 198t55 112q23 53 47 53q16 0 37 -5.5t21 -17.5q0 -2 -55.5 -172t-55.5 -217q0 -7 7.5 -25t7.5 -32q0 -12 -56.5 -38t-81.5 -26q-14 0 -39.5 19.5t-25.5 36.5zM440 766q0 11 17 29.5t26 35.5q45 81 81 158.5t51.5 117t31.5 72t32 43.5t42 11 q33 0 33 -14q0 -18 -9 -48l-104 -405q-5 -20 -23 -31q-60 -35 -98 -35q-20 0 -50 26.5t-30 39.5z" />
<glyph unicode="&#x201d;" horiz-adv-x="872" d="M119 715q0 20 8 47l104 405q5 20 23 31q60 35 98 35q20 0 50 -26.5t30 -39.5q0 -11 -17 -29.5t-26 -35.5q-45 -81 -81 -158.5t-51.5 -117t-31 -72t-31.5 -43.5t-42 -11q-33 0 -33 15zM455 723q0 1 55 172t55 217q0 7 -7 25t-7 32q0 12 56 38t81 26q14 0 40 -19t26 -36 q0 -20 -43.5 -114.5t-96 -198t-55.5 -111.5q-23 -54 -47 -54q-16 0 -36.5 5.5t-20.5 17.5z" />
<glyph unicode="&#x201e;" horiz-adv-x="872" d="M119 -190q0 20 8 47l104 405q5 20 23 31q60 35 98 35q20 0 50 -26.5t30 -39.5q0 -11 -17 -29.5t-26 -35.5q-45 -81 -81 -158.5t-51.5 -117t-31 -72t-31.5 -43.5t-42 -11q-33 0 -33 15zM455 -182q0 2 55 172t55 217q0 7 -7 25t-7 32q0 12 56 38t81 26q14 0 40 -19.5 t26 -36.5q0 -20 -43.5 -114.5t-96 -198t-55.5 -111.5q-23 -53 -47 -53q-16 0 -36.5 5.5t-20.5 17.5z" />
<glyph unicode="&#x2022;" horiz-adv-x="819" d="M221 483q0 32 75 107.5t107 75.5q38 0 74 -19q47 -27 76 -52.5t37 -39t8 -23.5q0 -39 -39.5 -85t-80.5 -73.5t-56 -27.5q-39 0 -166 74q-35 18 -35 63z" />
<glyph unicode="&#x2026;" horiz-adv-x="2048" d="M217 92q0 22 49.5 71.5t71.5 49.5q28 0 49 -12q31 -18 50.5 -35t24.5 -26t5 -15q0 -37 -49.5 -81t-67.5 -44q-25 0 -110 49q-23 13 -23 43zM899 92q0 22 49.5 71.5t71.5 49.5q28 0 49 -12q31 -18 50.5 -35t24.5 -26t5 -15q0 -37 -49.5 -81t-67.5 -44q-25 0 -110 49 q-23 13 -23 43zM1581 92q0 22 49.5 71.5t71.5 49.5q28 0 49 -12q31 -18 50.5 -35t24.5 -26t5 -15q0 -37 -49.5 -81t-67.5 -44q-25 0 -110 49q-23 13 -23 43z" />
<glyph unicode="&#x202f;" horiz-adv-x="314" />
<glyph unicode="&#x2039;" horiz-adv-x="645" d="M119 586q0 61 37 118.5t153 153.5q104 86 127 86q15 0 28 -12.5t13 -30.5q0 -5 -22.5 -25t-61 -65t-69.5 -100q-18 -32 -23.5 -51t-5.5 -56q0 -54 8.5 -78.5t30.5 -42.5q120 -94 156 -131.5t36 -58.5q0 -9 -29 -24t-44 -15q-55 0 -260 205q-41 41 -57.5 69t-16.5 58z" />
<glyph unicode="&#x203a;" horiz-adv-x="645" d="M119 293q0 21 36 58.5t156 131.5q22 18 30.5 42.5t8.5 78.5q0 37 -5 56t-23 51q-31 55 -69.5 100t-61.5 65t-23 25q0 18 13 30.5t28 12.5q23 0 127 -86q116 -96 153 -153.5t37 -118.5q0 -30 -16.5 -58.5t-56.5 -68.5q-205 -205 -260 -205q-15 0 -44.5 15t-29.5 24z" />
<glyph unicode="&#x205f;" horiz-adv-x="393" />
<glyph unicode="&#x20ac;" horiz-adv-x="1247" d="M88 705q0 15 9.5 23.5t41 14t88.5 5.5q15 0 35 -1.5t27 -1.5h10q25 90 69.5 163.5t100 122t116 83.5t125.5 53.5t120.5 26.5t109.5 8q78 0 129 -31t51 -65q0 -25 -42 -63.5t-68 -38.5q-10 0 -23.5 14.5t-26.5 31.5t-38 31.5t-56 14.5q-74 0 -137.5 -21t-108.5 -55 t-82 -81t-60 -94t-40 -100h287q12 0 42 -1t50 -1q19 0 54.5 1t43.5 1q21 0 32 -8.5t11 -21.5q0 -29 -69.5 -47.5t-155.5 -18.5q-51 0 -69 2h-250q-13 -70 -13 -106h203q127 0 205 -2q39 -1 58.5 -4.5t24.5 -8.5t5 -14q0 -5 -2.5 -9.5t-17 -16t-41.5 -27.5q-21 -12 -62 -12 q-121 0 -168 -2l-196 2q17 -82 63 -160.5t123 -135.5t164 -57q69 0 134 19.5t104.5 43t75 43t50.5 19.5q20 0 31.5 -12t11.5 -31q-55 -90 -186.5 -143t-278.5 -45q-48 0 -101.5 14.5t-111.5 49.5t-105 86t-80 132.5t-38 180.5q-50 -3 -82 -21q-23 -14 -47 -14 q-19 0 -32 35.5t-13 52.5q0 10 19.5 20.5t38.5 12.5q54 4 116 4q2 49 13 110q-38 -2 -88 -21.5t-62 -19.5q-17 0 -29 31t-12 60z" />
<glyph unicode="&#x2122;" horiz-adv-x="2027" d="M164 1126v107h659v-107h-270v-737h-119v737h-270zM958 389v844h195l262 -662l254 662h195v-844h-119v725h-4l-293 -725h-74l-293 725h-4v-725h-119z" />
<glyph unicode="&#x25fc;" horiz-adv-x="1228" d="M0 0v1229h1229v-1229h-1229z" />
<glyph unicode="&#xfb01;" horiz-adv-x="1781" d="M211 1081q0 23 47 68t74 45q12 0 58.5 -5t90.5 -5q101 0 286 9t200 9q22 0 22 -20q0 -16 -18 -43.5t-35 -30.5q-72 -13 -258 -31.5t-219 -23.5q-10 -2 -15.5 -11.5t-9.5 -42.5q-8 -80 -8 -297q0 -17 1 -51.5t1 -52.5h162q80 0 188.5 11.5t132.5 11.5q39 0 39 -37 q0 -31 -14 -50.5t-35 -19.5q-69 0 -240.5 -17t-240.5 -30v-428q0 -60 -12 -135.5t-37 -75.5q-23 0 -52.5 18.5t-29.5 36.5q0 15 3 60t6 153.5t3 278.5q0 48 -14.5 91.5t-14.5 68.5q0 21 9.5 60.5t9.5 63.5q0 59 -23 295q-57 81 -57 127zM1317 1073q0 26 61.5 77.5t89.5 51.5 q23 0 51.5 -17.5t28.5 -29.5q0 -16 -9.5 -52t-10.5 -59q-19 -287 -19 -882q0 -119 -15 -162t-50 -43q-26 0 -37 12.5t-20 85t-11 197.5t-2 381q0 81 -3 170t-3 115q0 63 -16 81q-35 40 -35 74z" />
<glyph unicode="&#xfb02;" horiz-adv-x="2162" d="M211 1081q0 23 47 68t74 45q12 0 58.5 -5t90.5 -5q101 0 286 9t200 9q22 0 22 -20q0 -16 -18 -43.5t-35 -30.5q-72 -13 -258 -31.5t-219 -23.5q-10 -2 -15.5 -11.5t-9.5 -42.5q-8 -80 -8 -297q0 -17 1 -51.5t1 -52.5h162q80 0 188.5 11.5t132.5 11.5q39 0 39 -37 q0 -31 -14 -50.5t-35 -19.5q-69 0 -240.5 -17t-240.5 -30v-428q0 -60 -12 -135.5t-37 -75.5q-23 0 -52.5 18.5t-29.5 36.5q0 15 3 60t6 153.5t3 278.5q0 48 -14.5 91.5t-14.5 68.5q0 21 9.5 60.5t9.5 63.5q0 59 -23 295q-57 81 -57 127zM1335 1161q0 21 64.5 70t87.5 49 t47.5 -14t24.5 -35q0 -11 -8.5 -45.5t-8.5 -55.5q0 -63 -6 -183t-6 -175q0 -36 2 -107t2 -118q0 -101 -12.5 -254t-12.5 -162q0 -16 25 -16q6 0 22 4t25 4l371 14q20 1 57 19t51 18q35 0 35 -27q0 -21 -21 -84t-42 -63t-80 20q-27 9 -223 9q-204 0 -234 -15q-28 -14 -63 -14 q-22 0 -50 44t-28 60q0 9 20 38.5t21 60.5q4 88 4 479q0 112 -6.5 199t-16 134t-19 77.5t-16 46t-6.5 22.5z" />
</font>
</defs>
</svg>
